<svg xmlns="http://www.w3.org/2000/svg" width="128" height="128" viewBox="0 0 128 128"><path d="M0,0h128v128H0z" fill="#FAE45E"/><path d="M28,20h72a8,8 0,0 1,8 8v54.21a16,16 0,0 1,-8.25 14l-31.88,17.65a8,8 0,0 1,-7.75 0L28.25,96.21A16,16 0,0 1,20 82.21V28a8,8 0,0 1,8 -8Z" fill="#FAE45E"/><path d="M104,28a4,4 0,0 0,-4 -4L28,24a4,4 0,0 0,-4 4v8h40c11.05,0 20,8.95 20,20s-8.95,20 -20,20L52,76v28.78l10.06,5.57a4,4 0,0 0,3.87 0l31.88,-17.65A12,12 0,0 0,104 82.21L104,28ZM24,82.21a12,12 0,0 0,6.19 10.5L44,100.35L44,74a6,6 0,0 1,6 -6h14c6.63,0 12,-5.37 12,-12s-5.37,-12 -12,-12L24,44v38.21ZM112,82.21a20,20 0,0 1,-10.31 17.5l-31.88,17.65a12,12 0,0 1,-11.62 0L26.31,99.71A20,20 0,0 1,16 82.21L16,28c0,-6.63 5.37,-12 12,-12h72c6.63,0 12,5.37 12,12v54.21Z" fill="#377BBF"/><path d="M100,20H28a8,8 0,0 0,-8 8v10a2,2 0,0 0,2 2h42c8.84,0 16,7.16 16,16s-7.16,16 -16,16H50a2,2 0,0 0,-2 2v28.43a8,8 0,0 0,4.13 7l8,4.43a8,8 0,0 0,7.75 0L99.75,96.21A16,16 0,0 0,108 82.21V28a8,8 0,0 0,-8 -8Z" fill="#66C2FF"/><path d="M104,82.21L104,28a4,4 0,0 0,-4 -4L28,24a4,4 0,0 0,-4 4v8h40c11.05,0 20,8.95 20,20s-8.95,20 -20,20L52,76v26.43a4,4 0,0 0,2.06 3.5l8,4.43a4,4 0,0 0,3.87 0l31.88,-17.65A12,12 0,0 0,104 82.21ZM112,82.21a20,20 0,0 1,-10.31 17.5l-31.88,17.65a12,12 0,0 1,-11.62 0l-8,-4.43A12,12 0,0 1,44 102.43L44,74a6,6 0,0 1,6 -6h14c6.63,0 12,-5.37 12,-12s-5.37,-12 -12,-12L22,44a6,6 0,0 1,-6 -6L16,28c0,-6.63 5.37,-12 12,-12h72c6.63,0 12,5.37 12,12v54.21Z" fill="#377BBF"/></svg>
