<svg xmlns="http://www.w3.org/2000/svg" width="128" height="128" viewBox="0 0 128 128"><defs><clipPath id="clip0"><path d="M0,0h128v128H0z"/></clipPath></defs><g clip-path="url(#clip0)"><path d="M0,0h128v128H0z" fill="#fff"/><path d="M0,0h128v128H0V0Z" fill="#F0F0F0"/><path d="M120,64c0,30.93 -25.07,56 -56,56S8,94.93 8,64 33.07,8 64,8s56,25.07 56,56Z" fill="#27469C"/><path d="M64,28c11.85,0 22.36,5.72 28.92,14.56 0.77,1.03 0.96,2.44 0.2,3.48a8,8 0,0 1,-2.43 2.22c-0.31,0.18 -0.6,0.38 -0.87,0.61L54.56,80.54c-1.95,1.75 -1.7,4.88 0.73,5.83a24,24 0,0 0,31.89 -16.15A8,8 0,0 1,98.2 64.99c1.17,0.53 1.71,1.84 1.57,3.11C97.73,86.05 82.49,100 64,100c-11.85,0 -22.36,-5.72 -28.92,-14.56 -0.77,-1.03 -0.96,-2.44 -0.21,-3.48a8,8 0,0 1,2.44 -2.23c0.31,-0.18 0.6,-0.38 0.87,-0.61l35.26,-31.66c1.95,-1.75 1.71,-4.88 -0.73,-5.82a24,24 0,0 0,-31.89 16.15,8 8,0 0,1 -11.02,5.22c-1.17,-0.53 -1.71,-1.84 -1.57,-3.11C30.27,41.95 45.51,28 64,28Z" fill="#1BB55E"/></g></svg>
