<svg xmlns="http://www.w3.org/2000/svg" width="128" height="128" viewBox="0 0 128 128" fill="none"><g clip-path="url(#a)"><path fill="#fff" d="M0 0h128v128H0z"/><path fill="#f0f0f0" d="M0 0h128v128H0z"/><path fill="#247abe" d="M0-41c64.065 0 116 51.935 116 116S64.065 191 0 191s-116-51.935-116-116S-64.065-41 0-41m0 16c-55.228 0-100 44.772-100 100S-55.228 175 0 175c52.45 0 95.467-40.381 99.662-91.75a72.5 72.5 0 0 1-22.823 25.81 72.5 72.5 0 0 1-32.64 12.417 8.001 8.001 0 0 1-1.92-15.885 56.502 56.502 0 0 0 42.93-82.948l-.02-.04C67.583-5.958 36.016-25 0-25m40 57c11.046 0 20 8.954 20 20s-8.954 20-20 20-20-8.954-20-20 8.954-20 20-20"/></g><defs><clipPath id="a"><path fill="#fff" d="M0 0h128v128H0z"/></clipPath></defs></svg>