<svg xmlns="http://www.w3.org/2000/svg" width="128" height="128" viewBox="0 0 128 128"><defs><clipPath id="clip0"><path d="M0,0h128v128H0z"/></clipPath></defs><g clip-path="url(#clip0)"><path d="M0,0h128v128H0z" fill="#FFF4D4"/><path d="M42.67,85.33h42.67V128H42.67V85.33Z" fill="#62A7D9"/><path d="M85.33,85.33H128V128H85.33V85.33Z" fill="#9985B6"/><path d="M85.33,42.67H128v42.67H85.33V42.67Z" fill="#3CADAB"/><path d="M0,42.67h42.67v42.67H0V42.67Z" fill="#FFBF47"/><path d="M42.67,42.67h42.67v42.67H42.67V42.67Z" fill="#6990C6"/><path d="M0,0h42.67v42.67H0V0Z" fill="#9FC85F"/><path d="M42.67,0h42.67v42.67H42.67V0Z" fill="#F29C63"/><path d="M85.33,0H128v42.67H85.33V0Z" fill="#77C7F1"/><path d="M0,85.33h42.67V128H0V85.33Z" fill="#E29EBD"/><path d="m61.17,14.83 l-36,36a4,4 0,0 0,-1.17 2.83v15.52c0,1.78 2.15,2.67 3.41,1.41l25.17,-25.17c1.26,-1.26 3.41,-0.37 3.41,1.41V112a4,4 0,0 0,4 4h8a4,4 0,0 0,4 -4V46.83c0,-1.78 2.15,-2.67 3.41,-1.41l25.17,25.17c1.26,1.26 3.41,0.37 3.41,-1.41V53.66c0,-1.06 -0.42,-2.08 -1.17,-2.83l-36,-36a4,4 0,0 0,-5.66 0Z" fill="#fff"/></g></svg>
