<svg xmlns="http://www.w3.org/2000/svg" width="128" height="128" viewBox="0 0 128 128" fill="none"><g clip-path="url(#a)"><path fill="#fff" d="M0 0h128v128H0z"/><path fill="#f0f0f0" d="M0 0h128v128H0z"/><path fill="#d74621" d="M64 16c26.51 0 48 21.49 48 48s-21.49 48-48 48-48-21.49-48-48c0-16.231 8.056-30.58 20.388-39.267C38.838 23.007 42 24.9 42 27.897V86a8 8 0 0 0 8 8h32a4 4 0 0 0 4-4v-4a4 4 0 0 0-4-4H58a4 4 0 0 1-4-4v-3a4 4 0 0 1 4-4h16a4 4 0 0 0 4-4v-4a4 4 0 0 0-4-4H58a4 4 0 0 1-4-4v-3a4 4 0 0 1 4-4h24a4 4 0 0 0 4-4v-4a4 4 0 0 0-4-4H58a4 4 0 0 1-4-4V20.287c0-1.89 1.32-3.54 3.19-3.806A48 48 0 0 1 64 16"/></g><defs><clipPath id="a"><path fill="#fff" d="M0 0h128v128H0z"/></clipPath></defs></svg>