<svg xmlns="http://www.w3.org/2000/svg" width="128" height="128" viewBox="0 0 128 128" fill="none"><g clip-path="url(#a)"><path fill="#f4f8fb" d="M0 0h128v128H0z"/><path fill="#f0f0f0" d="M0 0h128v128H0z"/><path fill="#c3d9f1" d="M152 44c0 37.555-30.445 68-68 68S16 81.555 16 44s30.445-68 68-68 68 30.445 68 68"/><path fill="#0364a6" d="M108 44c0-13.255-10.745-24-24-24S60 30.745 60 44s10.745 24 24 24v8c-17.673 0-32-14.327-32-32s14.327-32 32-32 32 14.327 32 32-14.327 32-32 32v-8c13.255 0 24-10.745 24-24"/><path fill="#0364a6" d="M12 106v-7.515a10 10 0 0 1 2.929-7.07l41.243-41.243 5.656 5.656-41.242 41.243A2 2 0 0 0 20 98.485V106a2 2 0 0 0 2 2h8a2 2 0 0 0 2-2v-4c0-5.523 4.477-10 10-10h4a2 2 0 0 0 2-2v-4c0-5.523 4.477-10 10-10h3.515a2 2 0 0 0 1.414-.586l9.243-9.242 5.656 5.656-9.242 9.243A10 10 0 0 1 61.515 84H58a2 2 0 0 0-2 2v4c0 5.523-4.477 10-10 10h-4a2 2 0 0 0-2 2v4c0 5.523-4.477 10-10 10h-8c-5.523 0-10-4.477-10-10M96 38a6 6 0 1 1-12 0 6 6 0 0 1 12 0"/></g><defs><clipPath id="a"><path fill="#fff" d="M0 0h128v128H0z"/></clipPath></defs></svg>