<svg xmlns="http://www.w3.org/2000/svg" width="128" height="128" viewBox="0 0 128 128"><path d="M0,0h128v128H0z" fill="#F0F0F0"/><path d="M8,64a8,8 0,0 1,8 -8h16a8,8 0,0 1,8 8v52a4,4 0,0 1,-4 4H12a4,4 0,0 1,-4 -4V64Z" fill="#80BDB7"/><path d="M8,96a8,8 0,0 1,8 -8h16a8,8 0,0 1,8 8v20a4,4 0,0 1,-4 4H12a4,4 0,0 1,-4 -4V96Z" fill="#C2E8E1"/><path d="M18,99a3,3 0,1 1,-6 0,3 3,0 0,1 6,0ZM36,99a3,3 0,1 1,-6 0,3 3,0 0,1 6,0ZM27.46,110a2,2 0,1 1,3.46 2,8 8,0 0,1 -13.86,0 2,2 0,1 1,3.46 -2,4 4,0 0,0 6.93,0Z" fill="#80BDB7"/><path d="M48,64a8,8 0,0 1,8 -8h16a8,8 0,0 1,8 8v52a4,4 0,0 1,-4 4H52a4,4 0,0 1,-4 -4V64Z" fill="#70BFED"/><path d="M48,96a8,8 0,0 1,8 -8h16a8,8 0,0 1,8 8v20a4,4 0,0 1,-4 4H52a4,4 0,0 1,-4 -4V96Z" fill="#BDE9F5"/><path d="M58,99a3,3 0,1 1,-6 0,3 3,0 0,1 6,0ZM76,99a3,3 0,1 1,-6 0,3 3,0 0,1 6,0ZM67.46,110a2,2 0,1 1,3.46 2,8 8,0 0,1 -13.86,0 2,2 0,1 1,3.46 -2,4 4,0 0,0 6.93,0Z" fill="#70BFED"/><path d="M88,64a8,8 0,0 1,8 -8h16a8,8 0,0 1,8 8v52a4,4 0,0 1,-4 4H92a4,4 0,0 1,-4 -4V64Z" fill="#B994B4"/><path d="M88,96a8,8 0,0 1,8 -8h16a8,8 0,0 1,8 8v20a4,4 0,0 1,-4 4H92a4,4 0,0 1,-4 -4V96Z" fill="#DAC4D9"/><path d="M98,99a3,3 0,1 1,-6 0,3 3,0 0,1 6,0ZM116,99a3,3 0,1 1,-6 0,3 3,0 0,1 6,0ZM107.46,110a2,2 0,1 1,3.46 2,8 8,0 0,1 -13.86,0 2,2 0,1 1,3.46 -2,4 4,0 0,0 6.93,0Z" fill="#B994B4"/><path d="M8,16a8,8 0,0 1,8 -8h16a8,8 0,0 1,8 8v52a4,4 0,0 1,-4 4H12a4,4 0,0 1,-4 -4V16Z" fill="#ED8696"/><path d="M8,48a8,8 0,0 1,8 -8h16a8,8 0,0 1,8 8v20a4,4 0,0 1,-4 4H12a4,4 0,0 1,-4 -4V48Z" fill="#F8CDDD"/><path d="M18,51a3,3 0,1 1,-6 0,3 3,0 0,1 6,0ZM36,51a3,3 0,1 1,-6 0,3 3,0 0,1 6,0ZM27.46,62a2,2 0,1 1,3.46 2,8 8,0 0,1 -13.86,0 2,2 0,1 1,3.46 -2,4 4,0 0,0 6.93,0Z" fill="#ED8696"/><path d="M48,16a8,8 0,0 1,8 -8h16a8,8 0,0 1,8 8v52a4,4 0,0 1,-4 4H52a4,4 0,0 1,-4 -4V16Z" fill="#F8B650"/><path d="M48,48a8,8 0,0 1,8 -8h16a8,8 0,0 1,8 8v20a4,4 0,0 1,-4 4H52a4,4 0,0 1,-4 -4V48Z" fill="#FAE4AA"/><path d="M58,51a3,3 0,1 1,-6 0,3 3,0 0,1 6,0ZM76,51a3,3 0,1 1,-6 0,3 3,0 0,1 6,0ZM67.46,62a2,2 0,1 1,3.46 2,8 8,0 0,1 -13.86,0 2,2 0,1 1,3.46 -2,4 4,0 0,0 6.93,0Z" fill="#F8B650"/><path d="M88,16a8,8 0,0 1,8 -8h16a8,8 0,0 1,8 8v52a4,4 0,0 1,-4 4H92a4,4 0,0 1,-4 -4V16Z" fill="#B2CE6D"/><path d="M88,48a8,8 0,0 1,8 -8h16a8,8 0,0 1,8 8v20a4,4 0,0 1,-4 4H92a4,4 0,0 1,-4 -4V48Z" fill="#D9EEB8"/><path d="M98,51a3,3 0,1 1,-6 0,3 3,0 0,1 6,0ZM116,51a3,3 0,1 1,-6 0,3 3,0 0,1 6,0ZM107.46,62a2,2 0,1 1,3.46 2,8 8,0 0,1 -13.86,0 2,2 0,1 1,3.46 -2,4 4,0 0,0 6.93,0Z" fill="#B2CE6D"/></svg>
