<svg xmlns="http://www.w3.org/2000/svg" width="128" height="128" viewBox="0 0 128 128"><defs><clipPath id="clip0"><path d="M0,0h128v128H0z"/></clipPath></defs><g clip-path="url(#clip0)"><path d="M0,0h128v128H0z" fill="#ECD27E"/><path d="M0,0h128v128H0V0Z" fill="#F0F0F0"/><path d="M62.38,16a4,4 0,0 0,-3.52 2.1L9.6,109.05c-0.72,1.33 0.24,2.95 1.76,2.95H56l52,-96H62.38Z" fill="#223F9A" fill-rule="evenodd"/><path d="M62.38,16a4,4 0,0 0,-3.52 2.1L9.6,109.05c-0.72,1.33 0.24,2.95 1.76,2.95H56l52,-96H62.38Z" fill="#000" fill-opacity="0.2" fill-rule="evenodd"/><path d="M118.4,18.95c0.72,-1.33 -0.24,-2.95 -1.76,-2.95H108l-52,96h9.62a4,4 0,0 0,3.52 -2.1L118.4,18.95Z" fill="#223F9A"/><path d="M118.4,18.95c0.72,-1.33 -0.24,-2.95 -1.76,-2.95H108l-52,96h9.62a4,4 0,0 0,3.52 -2.1L118.4,18.95Z" fill="#02B3F0"/></g></svg>
