<svg xmlns="http://www.w3.org/2000/svg" width="128" height="128" viewBox="0 0 128 128"><defs><clipPath id="clip0"><path d="M0,0h128v128H0z"/></clipPath></defs><g clip-path="url(#clip0)"><path d="M0,0h128v128H0z" fill="#ecd27e"/><path d="m75,78 l6,-28H53l-6,28zM40.47,120h23.1a3,3 0,0 0,2.93 -2.37L75,78H47l-8.48,39.58A2,2 0,0 0,40.47 120" fill="#e51516"/><path d="m13.49,52.37 l-4.97,23.21A2,2 0,0 0,10.47 78H47l6,-28H16.42a3,3 0,0 0,-2.93 2.37M87.53,8h-23.1a3,3 0,0 0,-2.93 2.37L53,50h28l8.48,-39.58A2,2 0,0 0,87.53 8" fill="#e51516"/><path d="M0,0h128v128L0,128zM75,78 L66.51,117.63A3,3 0,0 1,63.58 120L40.47,120a2,2 0,0 1,-1.96 -2.42L47,78L10.47,78a2,2 0,0 1,-1.96 -2.42l4.97,-23.21A3,3 0,0 1,16.42 50L53,50l8.49,-39.63A3,3 0,0 1,64.43 8h23.1a2,2 0,0 1,1.96 2.42L81,50h36.53a2,2 0,0 1,1.96 2.42l-4.97,23.21A3,3 0,0 1,111.57 78z" fill="#f0f0f0" fill-rule="evenodd"/><path d="m114.51,75.63 l4.97,-23.21A2,2 0,0 0,117.53 50H81l-6,28h36.58a3,3 0,0 0,2.93 -2.37" fill="#e51516"/></g></svg>
