<svg xmlns="http://www.w3.org/2000/svg" width="128" height="128" viewBox="0 0 128 128" fill="none"><path fill="#f0f0f0" d="M0 0h128v128H0z"/><path fill="#0a8c0d" d="M96 28c13.255 0 24 10.745 24 24 0 9.865-5.952 18.338-14.461 22.027-1.292.56-1.848 2.177-1.029 3.323l11.661 16.325c1.891 2.648-.002 6.325-3.255 6.325h-9.832a4 4 0 0 1-3.255-1.675l-22.857-32C75.081 63.677 76.973 60 80.227 60H96a8 8 0 0 0 0-16H72a4 4 0 0 0-4 4v22c0 16.569-13.431 30-30 30-16.568 0-30-13.431-30-30V60a4 4 0 0 1 4-4h8a4 4 0 0 1 4 4v10c0 7.732 6.268 14 14 14s14-6.268 14-14V32a4 4 0 0 1 4-4z"/></svg>
