<svg xmlns="http://www.w3.org/2000/svg" width="128" height="128" viewBox="0 0 128 128"><defs><clipPath id="clip0"><path d="M0,0h128v128H0z"/></clipPath></defs><g clip-path="url(#clip0)"><path d="M0,0h128v128H0z" fill="#fff"/><path d="M0,0h128v128H0V0Z" fill="#F0F0F0"/><path d="M112,64c0,26.51 -21.49,48 -48,48S16,90.51 16,64s21.49,-48 48,-48 48,21.49 48,48Z" fill="#AC2215"/><path d="M71.26,57.1V56a8,8 0,0 0,-8 -8H56v17.1h7.26v8H56.58v13.94l-0.01,0.2a2,2 0,0 1,-1.99 1.79H50l-0.2,-0.01A2,2 0,0 1,48 87.03V42a2,2 0,0 1,1.8 -1.99L50,40h13.26c8.84,0 16,7.16 16,16v1.1l-0,0.41c-0.22,8.51 -7.07,15.37 -15.58,15.58l-0.41,0v-8a8,8 0,0 0,8 -8Z" fill="#fff"/><path d="M70.7,68.81a2,2 0,0 1,1.63 0.85l12.55,17.8a1,1 0,0 1,-0.67 1.57l-0.15,0.01v-1l-1.42,1h-6.06a2,2 0,0 1,-1.61 -0.81L61.88,70.4a1,1 0,0 1,0.81 -1.59L70.7,68.81ZM84.07,89.03h-1.42l1.42,-1v1Z" fill="#fff"/></g></svg>
