<svg xmlns="http://www.w3.org/2000/svg" width="128" height="128" viewBox="0 0 128 128"><defs><clipPath id="clip0"><path d="M0,0h128v128H0z"/></clipPath></defs><g clip-path="url(#clip0)"><path d="M0,0h128v128H0z" fill="#fff"/><path d="M128,0L0,0v128h128zM106,84a6,6 0,1 0,12 0z" fill="#f0f0f0" fill-rule="evenodd"/><path d="M10,84a54,54 0,0 1,15.82 -38.18,6 6,0 0,1 8.49,8.49A42,42 0,0 0,22 84a6,6 0,0 1,-12 0" fill="#0f5ea0"/><path d="m68.24,79.76 l-8.48,8.48 -34,-34 8.48,-8.48zM10,84h12v4a4,4 0,0 1,-4 4h-4a4,4 0,0 1,-4 -4z" fill="#0f5ea0"/><path d="M118,88v-4a6,6 0,1 1,-12 0v4a4,4 0,0 0,4 4h4a4,4 0,0 0,4 -4" fill="#0f5ea0" fill-rule="evenodd"/><path d="M101.66,49.17a4,4 0,0 1,0 5.66L78.04,78.45a3.99,3.99 0,0 1,-5.64 0.01c-0.93,-0.92 -1.9,-1.88 -2.86,-2.85a3.99,3.99 0,0 1,0 -5.64l23.63,-23.63a4,4 0,0 1,5.66 0zM62.33,90.83 L55.5,84l8.5,-8.5 9.67,9.67c2.52,2.52 0.74,6.83 -2.83,6.83h-5.69a4,4 0,0 1,-2.83 -1.17" fill="#0f5ea0"/><path d="M113.89,63.33A54,54 0,0 1,118 84h-12a42,42 0,0 0,-12.3 -29.7,6 6,0 0,1 8.49,-8.49 54,54 0,0 1,11.71 17.52" fill="#0f5ea0" fill-rule="evenodd"/><path d="M64,30a54,54 0,0 1,25.76 6.54c2.22,1.2 2.51,4.18 0.73,5.97l-3.07,3.07c-1.29,1.29 -3.27,1.52 -4.91,0.72a41.98,41.98 0,0 0,-37.03 0c-1.63,0.8 -3.62,0.57 -4.91,-0.72l-3.07,-3.07c-1.79,-1.79 -1.49,-4.77 0.73,-5.97A54,54 0,0 1,64 30" fill="#e9422f"/><path d="M112,90a6,6 0,0 1,-6 -6h12a6,6 0,0 1,-6 6" fill="#0f5ea0"/></g></svg>
