<svg xmlns="http://www.w3.org/2000/svg" width="128" height="128" viewBox="0 0 128 128"><path d="M0,0h128v128H0z" fill="#F0F0F0"/><path d="M62,12c27.61,0 50,22.39 50,50s-22.39,50 -50,50 -50,-22.39 -50,-50 22.39,-50 50,-50ZM96.83,84.83a4,4 0,0 0,-5.66 0l-6.34,6.34a4,4 0,0 0,0 5.66L90,102l12,-12 -5.17,-5.17ZM60,28c-17.67,0 -32,14.33 -32,32 0,17.67 14.33,32 32,32 4.7,0 9.15,-1.01 13.17,-2.83L61.66,77.66a8,8 0,0 1,0 -11.31l4.69,-4.69a8,8 0,0 1,11.31 0l11.51,11.51A31.88,31.88 0,0 0,92 60c0,-17.67 -14.33,-32 -32,-32Z" fill="#003E94"/><path d="m109.41,118.59 l9.17,-9.17c0.26,-0.26 0.41,-0.63 0.41,-1 0,-1.26 -1.52,-1.89 -2.41,-1l-9.17,9.17c-0.89,0.89 -0.26,2.41 1,2.41 0.38,0 0.74,-0.15 1,-0.41ZM95.17,88.83l-6.34,6.34a4,4 0,0 0,0 5.66l2.34,2.34a4,4 0,0 0,5.66 0l6.34,-6.34a4,4 0,0 0,0 -5.66l-2.34,-2.34a4,4 0,0 0,-5.66 0ZM108,100l-8,8a2.83,2.83 0,1 0,4 4l8,-8a2.83,2.83 0,1 0,-4 -4Z" fill="#D00E18"/></svg>
