<svg xmlns="http://www.w3.org/2000/svg" width="128" height="128" viewBox="0 0 128 128"><defs><clipPath id="clip0"><path d="M0,0h128v128H0z"/></clipPath></defs><g clip-path="url(#clip0)"><path d="M0,0h128v128H0z" fill="#9DE44D"/><path d="M120,64c0,30.93 -25.07,56 -56,56S8,94.93 8,64 33.07,8 64,8s56,25.07 56,56Z" fill="#000"/><path d="M8,65h112v98H8V65Z" fill="#000"/><path d="M76,72c0,6.63 -5.37,12 -12,12s-12,-5.37 -12,-12 5.37,-12 12,-12 12,5.37 12,12ZM48,53c0,6.63 -5.37,12 -12,12s-12,-5.37 -12,-12 5.37,-12 12,-12 12,5.37 12,12Z" fill="#fff"/><path d="M44,53a8,8 0,1 1,-16 0,8 8,0 0,1 16,0Z" fill="#000"/><path d="M104,53c0,6.63 -5.37,12 -12,12s-12,-5.37 -12,-12 5.37,-12 12,-12 12,5.37 12,12Z" fill="#fff"/><path d="M115,22c0,6.63 -5.37,12 -12,12s-12,-5.37 -12,-12 5.37,-12 12,-12 12,5.37 12,12ZM36,22c0,6.63 -5.37,12 -12,12s-12,-5.37 -12,-12 5.37,-12 12,-12 12,5.37 12,12ZM100,53a8,8 0,1 1,-16 0,8 8,0 0,1 16,0Z" fill="#000"/><path d="M24,116c0,-8.84 7.16,-16 16,-16h48c8.84,0 16,7.16 16,16v42c0,5.52 -4.48,10 -10,10H34c-5.52,0 -10,-4.48 -10,-10v-42Z" fill="#fff"/></g></svg>
