<svg xmlns="http://www.w3.org/2000/svg" width="128" height="128" viewBox="0 0 128 128"><defs><clipPath id="clip0"><path d="M0,0h128v128H0z"/></clipPath></defs><g clip-path="url(#clip0)"><path d="M0,0h128v128H0z" fill="#F0F0F0"/><path d="M92,58c13.26,0 24,10.74 24,24s-10.74,24 -24,24 -24,-10.74 -24,-24 10.74,-24 24,-24Z" fill="#F9E24C" fill-opacity="0.9"/><path d="M55,111c0,-17.67 -14.33,-32 -32,-32C5.33,79 -9,93.33 -9,111c0,17.67 14.33,32 32,32v32c-35.35,0 -64,-28.65 -64,-64 0,-35.35 28.65,-64 64,-64 35.35,0 64,28.65 64,64 0,35.35 -28.65,64 -64,64v-32c17.67,0 32,-14.33 32,-32Z" fill="#E7959E" fill-opacity="0.9"/><path d="M104,121a8,8 0,1 0,-8 8v24c-17.67,0 -32,-14.33 -32,-32 0,-17.67 14.33,-32 32,-32 17.67,0 32,14.33 32,32 0,17.67 -14.33,32 -32,32v-24a8,8 0,0 0,8 -8Z" fill="#F9E24C" fill-opacity="0.9"/><path d="M89,37c0,-11.6 -9.4,-21 -21,-21s-21,9.4 -21,21 9.4,21 21,21v24c-24.85,0 -45,-20.15 -45,-45S43.15,-8 68,-8s45,20.15 45,45 -20.15,45 -45,45V58c11.6,0 21,-9.4 21,-21Z" fill="#FB7F8C" fill-opacity="0.9"/></g></svg>
