<svg xmlns="http://www.w3.org/2000/svg" width="128" height="128" viewBox="0 0 128 128"><defs><clipPath id="clip0"><path d="M0,0h128v128H0z"/></clipPath></defs><g clip-path="url(#clip0)"><path d="M0,0h128v128H0z" fill="#F0F0F0"/><path d="M192,138c0,70.69 -57.31,128 -128,128 -70.69,0 -128,-57.31 -128,-128C-64,67.31 -6.69,10 64,10c70.69,0 128,57.31 128,128Z" fill="#EDCA00"/><path d="M48,52c0,6.63 -5.37,12 -12,12s-12,-5.37 -12,-12 5.37,-12 12,-12 12,5.37 12,12Z" fill="#F9F9F9"/><path d="M47,52c0,-6.07 -4.93,-11 -11,-11s-11,4.93 -11,11 4.93,11 11,11v1c-6.63,0 -12,-5.37 -12,-12s5.37,-12 12,-12 12,5.37 12,12 -5.37,12 -12,12v-1c6.07,0 11,-4.93 11,-11ZM104,52c0,6.63 -5.37,12 -12,12s-12,-5.37 -12,-12 5.37,-12 12,-12 12,5.37 12,12Z" fill="#F9F9F9"/><path d="M103,52c0,-6.07 -4.93,-11 -11,-11s-11,4.93 -11,11 4.93,11 11,11v1c-6.63,0 -12,-5.37 -12,-12s5.37,-12 12,-12 12,5.37 12,12 -5.37,12 -12,12v-1c6.07,0 11,-4.93 11,-11ZM98,88.89a3,3 0,0 1,3 5.2,74 74,0 0,1 -74,0 3,3 0,0 1,3 -5.2,68 68,0 0,0 68,0Z" fill="#F9F9F9"/></g></svg>
