<svg xmlns="http://www.w3.org/2000/svg" width="128" height="128" viewBox="0 0 128 128">
  <path fill="#d42a20" d="M0 0h128v128H0z"/>
  <path fill="#fff" d="M20.586 108.586c1.26 1.26 3.414.367 3.414-1.414v-6.758a1 1 0 0 0-.293-.707L16 92V38a2 2 0 0 1 2-2h92a2 2 0 0 1 2 2v52a2 2 0 0 1-2 2H28a2 2 0 0 0-2 2v4a2 2 0 0 0 2 2h84a8 8 0 0 0 8-8V36a8 8 0 0 0-8-8H16a8 8 0 0 0-8 8v56.686a8 8 0 0 0 2.343 5.657z"/>
  <path fill="#ffcc02" d="M79.589 73c.956.552 1.292 1.783.647 2.68a20 20 0 1 1 0-23.36c.645.897.309 2.128-.648 2.68L67 62.268c-1.333.77-1.333 2.694 0 3.464z"/>
</svg>
