<svg xmlns="http://www.w3.org/2000/svg" width="128" height="128" viewBox="0 0 128 128" fill="none"><g clip-path="url(#a)"><path fill="#f0f0f0" d="M0 0h128v128H0z"/><path fill="#f0f0f0" d="M0 0h128v128H0z"/><path fill="#c1e8f8" d="M24 62a6 6 0 1 1-12 0 6 6 0 0 1 12 0M16 114a6 6 0 1 1-12 0 6 6 0 0 1 12 0M124 34a6 6 0 1 1-12 0 6 6 0 0 1 12 0M76 18a6 6 0 1 1-12 0 6 6 0 0 1 12 0M44 38a6 6 0 1 1-12 0 6 6 0 0 1 12 0M22 14a6 6 0 1 1-12 0 6 6 0 0 1 12 0"/><path fill="#fff03f" d="M144 100c0 33.137-26.863 60-60 60s-60-26.863-60-60 26.863-60 60-60 60 26.863 60 60"/><path fill="#000" d="M138 100c0-29.823-24.177-54-54-54s-54 24.177-54 54 24.177 54 54 54v6c-33.137 0-60-26.863-60-60s26.863-60 60-60 60 26.863 60 60-26.863 60-60 60v-6c29.823 0 54-24.177 54-54"/><path fill="#137e43" d="M112 20c0 6.627-5.373 12-12 12s-12-5.373-12-12 5.373-12 12-12 12 5.373 12 12"/><path fill="#000" d="M106 20a6 6 0 1 0-6 6v6c-6.627 0-12-5.373-12-12s5.373-12 12-12 12 5.373 12 12-5.373 12-12 12v-6a6 6 0 0 0 6-6"/><path fill="#000" d="M94.4 29.2c-2.571 1.929-4.065 3.787-4.982 5.895C88.473 37.269 88 40.032 88 44h-8c0-4.532.527-8.519 2.082-12.095 1.583-3.641 4.09-6.534 7.518-9.105zM98.318 96.292a3 3 0 0 1 4.933 3.416c-2.43 3.507-5.88 6.357-9.95 8.315C89.23 109.982 84.644 111 80 111s-9.23-1.018-13.3-2.977c-4.072-1.958-7.521-4.808-9.951-8.315a3 3 0 0 1 4.933-3.416c1.783 2.574 4.393 4.773 7.619 6.325S76.219 105 80 105s7.473-.831 10.7-2.383c3.225-1.552 5.835-3.751 7.618-6.325M69.24 79.994c.864-.04 1.796.738 1.498 1.55C69.317 85.427 66.831 88 64 88c-4.418 0-8-6.268-8-14s3.582-14 8-14c3.34 0 6.199 3.581 7.397 8.669.197.839-.803 1.512-1.655 1.386a5 5 0 1 0-.502 9.94M101.24 79.994c.864-.04 1.796.738 1.498 1.55C101.317 85.427 98.831 88 96 88c-4.418 0-8-6.268-8-14s3.582-14 8-14c3.34 0 6.199 3.581 7.397 8.669.197.839-.802 1.512-1.655 1.386a5 5 0 1 0-.502 9.94"/><path fill="#000" d="M84 93c0 1.657-1.79 3-4 3s-4-1.343-4-3 1.79-3 4-3 4 1.343 4 3"/></g><defs><clipPath id="a"><path fill="#fff" d="M0 0h128v128H0z"/></clipPath></defs></svg>