<svg xmlns="http://www.w3.org/2000/svg" width="128" height="128" viewBox="0 0 128 128"><defs><clipPath id="clip0"><path d="M0,0h128v128H0z"/></clipPath></defs><g clip-path="url(#clip0)"><path d="M0,0h128v128H0z" fill="#f39a14"/><path d="M32,64V36a4,4 0,0 1,8 0v28c0,11.05 8.95,20 20,20a4,4 0,0 1,0 8c-15.46,0 -28,-12.54 -28,-28M100,76V64a4,4 0,0 0,-8 0v12a8,8 0,1 1,-16 0V64a4,4 0,0 0,-8 0v12c0,8.84 7.16,16 16,16s16,-7.16 16,-16M20,116v-7.04l-5.98,3.49a4,4 0,0 1,-4.03 -6.91L16.06,102l-6.08,-3.55a4,4 0,0 1,4.03 -6.91L20,95.04V88a4,4 0,0 1,8 0v7.03l5.98,-3.49a4,4 0,0 1,4.03 6.91L31.94,102l6.08,3.55a4,4 0,0 1,-4.03 6.91L28,108.96V116a4,4 0,0 1,-8 0M100,40v-7.04l-5.98,3.49a4,4 0,0 1,-4.03 -6.91L96.06,26l-6.08,-3.55a4,4 0,0 1,4.03 -6.91l5.98,3.49V12a4,4 0,0 1,8 0v7.03l5.98,-3.49a4,4 0,0 1,4.03 6.91L111.94,26l6.08,3.55a4,4 0,0 1,-4.03 6.91L108,32.96V40a4,4 0,0 1,-8 0" fill="#fdfff4"/></g></svg>
