<svg xmlns="http://www.w3.org/2000/svg" width="128" height="128" viewBox="0 0 128 128" fill="none"><g clip-path="url(#a)"><path fill="#f0f0f0" d="M0 0h128v128H0z"/><path fill="#f0f0f0" d="M0 0h128v128H0z"/><path fill="#f9b838" d="M17.18 74.513c2.871 11.82 14.194 20.579 28.208 25.855 8.138 3.063 10.842 4.423 22.054 3.165 30.933-3.468 47.639-10.078 51.619-25.683 3.39-13.294-3.786-27.098-14.31-35.898-9.86-8.246-23.294-15.44-37.309-14.926-22.977.844-41.714 17.236-48.211 25.327-1.88 2.462-4.924 10.341-2.052 22.16"/><path fill="#d52a1a" d="M31.625 45.963C10.73 53.194 7.249 65.85 8.12 71.273c.37 6.865 7.89 21.178 34.996 23.5 20.894 2.892 15.67 1.205 28.728 5.423 3.483 1.607 14.417 4.58 30.296 3.616s18.455-14.06 17.759-20.488c0-1.206-1.045-5.424-5.224-12.655-4.178-7.23-3.482-14.261-2.611-16.872 2.21-6.629 4.436-15.345-1.567-21.09-7.951-7.61-27.684-4.62-38.13-.603-4.876 1.607-19.85 6.628-40.742 13.86"/><path fill="#f9b838" fill-opacity=".6" d="M17.18 74.513c2.871 11.82 14.194 20.579 28.208 25.855 8.138 3.063 10.842 4.423 22.054 3.165 30.933-3.468 47.639-10.078 51.619-25.683 3.39-13.294-3.786-27.098-14.31-35.898-9.86-8.246-23.294-15.44-37.309-14.926-22.977.844-41.714 17.236-48.211 25.327-1.88 2.462-4.924 10.341-2.052 22.16"/><path fill="#f0f0f0" d="M0 0h128v128H0z"/><path fill="#f9b838" d="M17.18 74.513c2.871 11.82 14.194 20.579 28.208 25.855 8.138 3.063 10.842 4.423 22.054 3.165 30.933-3.468 47.639-10.078 51.619-25.683 3.39-13.294-3.786-27.098-14.31-35.898-9.86-8.246-23.294-15.44-37.309-14.926-22.977.844-41.714 17.236-48.211 25.327-1.88 2.462-4.924 10.341-2.052 22.16"/><path fill="#d52a1a" d="M31.625 45.963C10.73 53.194 7.249 65.85 8.12 71.273c.37 6.865 7.89 21.178 34.996 23.5 20.894 2.892 15.67 1.205 28.728 5.423 3.483 1.607 14.417 4.58 30.296 3.616s18.455-14.06 17.759-20.488c0-1.206-1.045-5.424-5.224-12.655-4.178-7.23-3.482-14.261-2.611-16.872 2.21-6.629 4.436-15.345-1.567-21.09-7.951-7.61-27.684-4.62-38.13-.603-4.876 1.607-19.85 6.628-40.742 13.86"/><path fill="#f9b838" fill-opacity=".6" d="M17.18 74.513c2.871 11.82 14.194 20.579 28.208 25.855 8.138 3.063 10.842 4.423 22.054 3.165 30.933-3.468 47.639-10.078 51.619-25.683 3.39-13.294-3.786-27.098-14.31-35.898-9.86-8.246-23.294-15.44-37.309-14.926-22.977.844-41.714 17.236-48.211 25.327-1.88 2.462-4.924 10.341-2.052 22.16"/></g><defs><clipPath id="a"><path fill="#fff" d="M0 0h128v128H0z"/></clipPath></defs></svg>