<svg xmlns="http://www.w3.org/2000/svg" width="128" height="128" viewBox="0 0 128 128" fill="none"><g clip-path="url(#a)"><path fill="#f0f0f0" d="M0 0h128v128H0z"/><path fill="#b7331f" d="M0 0h128v128H0z"/><path fill="#000" d="m0 0 128 128H0z"/><path fill="#fff" d="M88 64c0 13.255-10.745 24-24 24S40 77.255 40 64s10.745-24 24-24 24 10.745 24 24"/><path fill="#000" d="M85.879 73.879a24 24 0 0 1-4.908 7.092L47.029 47.029a24 24 0 0 1 7.091-4.909z"/><path fill="#000" d="m55 43 40 40-6 6-40-40z"/><path fill="#000" d="m47 35 37 37-6 6-37-37a4.243 4.243 0 1 1 6-6"/><path fill="#b7331f" d="M80.97 80.97a24 24 0 0 1-7.09 4.909L42.12 54.12a24 24 0 0 1 4.908-7.09z"/><path fill="#b7331f" d="m39 39 40 40-6 6-40-40z"/><path fill="#b7331f" d="m50 50 37 37a4.243 4.243 0 1 1-6 6L44 56z"/><path fill="#000" d="M112 64a48 48 0 0 0-14.059-33.941 48 48 0 0 0-67.882 0 4 4 0 1 1-5.657-5.657 56 56 0 1 1 79.196 79.196 4 4 0 0 1-5.657-5.657A48 48 0 0 0 112 64"/><path fill="#b7331f" d="M16 64a48 48 0 0 0 29.63 44.347 48.005 48.005 0 0 0 52.311-10.406l5.657 5.657a55.998 55.998 0 0 1-91.335-18.167 56 56 0 0 1 12.14-61.029l5.656 5.657A48 48 0 0 0 16 64"/><path fill="#000" d="M97.171 25.172a4 4 0 0 1 5.657 5.656l-6.58 6.578c-.726.727-.78 1.882-.166 2.706A40 40 0 0 1 104 64a40.01 40.01 0 0 1-10.338 26.835c-.741.82-2.012.816-2.793.035l-2.828-2.829c-.781-.78-.776-2.043-.045-2.871a31.99 31.99 0 0 0-1.347-43.774.03.03 0 0 1 0-.045.03.03 0 0 0 0-.045 4 4 0 0 1 .022-5.634z"/><path fill="#000" d="M96 64a32 32 0 0 0-9.373-22.627l5.657-5.657A40 40 0 0 1 104 64a40.008 40.008 0 0 1-11.716 28.284l-5.657-5.657A32 32 0 0 0 96 64"/><path fill="#b7331f" d="M39.959 39.96c.781.78.776 2.042.045 2.87a31.995 31.995 0 0 0 1.346 43.775.03.03 0 0 1 0 .045.03.03 0 0 0 0 .045l.12.127a4 4 0 0 1-.142 5.507l-10.5 10.5a4 4 0 0 1-5.656-5.657l6.58-6.579c.725-.726.779-1.881.165-2.705A40 40 0 0 1 24 64a40 40 0 0 1 10.338-26.835c.74-.819 2.011-.816 2.792-.035z"/><path fill="#b7331f" d="M32 64a32 32 0 0 0 9.373 22.627l-5.657 5.657a39.997 39.997 0 0 1 0-56.568l5.657 5.657A32 32 0 0 0 32 64"/></g><defs><clipPath id="a"><path fill="#fff" d="M0 0h128v128H0z"/></clipPath></defs></svg>