<svg xmlns="http://www.w3.org/2000/svg" width="128" height="128" viewBox="0 0 128 128"><path d="M0,0h128v128H0z" fill="#C0E25F"/><path d="M62.29,10.86c0.78,-1.29 2.65,-1.29 3.43,0L75.42,27.03a2,2 0,0 0,1.72 0.97h22.04c1.78,0 2.67,2.16 1.41,3.42l-24,24A2,2 0,0 0,76 56.83c0,0.4 0.27,0.75 0.66,0.86 14.68,4 26.55,14.8 32.04,28.8a0.95,0.95 0,0 1,-0.98 1.3c-9.99,-0.96 -19.01,-5.27 -25.91,-11.78 -0.71,-0.67 -1.97,-0.08 -1.91,0.89 0.06,1.02 0.1,2.06 0.1,3.1 0,13.89 -5.91,26.41 -15.34,35.17a0.97,0.97 0,0 1,-1.32 0C53.9,106.4 48,93.89 48,80c0,-1.04 0.03,-2.08 0.1,-3.1 0.06,-0.98 -1.2,-1.57 -1.91,-0.89 -6.91,6.52 -15.92,10.82 -25.91,11.78a0.95,0.95 0,0 1,-0.98 -1.3c5.49,-14 17.36,-24.79 32.04,-28.8a0.9,0.9 0,0 0,0.67 -0.86,2 2,0 0,0 -0.58,-1.41l-24,-24C26.16,30.16 27.05,28 28.83,28h22.04a2,2 0,0 0,1.72 -0.97l9.7,-16.17Z" fill="#414A6E"/><path d="M62.63,65.92a1.79,1.79 0,0 1,2.75 0A27.88,27.88 0,0 1,72 84a27.88,27.88 0,0 1,-6.63 18.08,1.79 1.79,0 0,1 -2.75,0A27.89,27.89 0,0 1,56 84a27.88,27.88 0,0 1,6.63 -18.08Z" fill="#C0E25F"/></svg>
