<svg xmlns="http://www.w3.org/2000/svg" width="128" height="128" viewBox="0 0 128 128"><defs><clipPath id="clip0"><path d="M0,0h128v128H0z"/></clipPath></defs><g clip-path="url(#clip0)"><path d="M0,0h128v128H0z" fill="#BED41C"/><path d="M38,128a6,6 0,1 0,-6 6v6c-6.63,0 -12,-5.37 -12,-12s5.37,-12 12,-12 12,5.37 12,12 -5.37,12 -12,12v-6a6,6 0,0 0,6 -6Z" fill="#fff"/><path d="M50,128c0,-9.94 -8.06,-18 -18,-18s-18,8.06 -18,18 8.06,18 18,18v6c-13.26,0 -24,-10.74 -24,-24s10.74,-24 24,-24 24,10.74 24,24 -10.74,24 -24,24v-6c9.94,0 18,-8.06 18,-18ZM102,128a6,6 0,1 0,-6 6v6c-6.63,0 -12,-5.37 -12,-12s5.37,-12 12,-12 12,5.37 12,12 -5.37,12 -12,12v-6a6,6 0,0 0,6 -6Z" fill="#fff"/><path d="M114,128c0,-9.94 -8.06,-18 -18,-18s-18,8.06 -18,18 8.06,18 18,18v6c-13.26,0 -24,-10.74 -24,-24s10.74,-24 24,-24 24,10.74 24,24 -10.74,24 -24,24v-6c9.94,0 18,-8.06 18,-18ZM62,42a26,26 0,0 1,26 -26,3 3,0 1,1 0,6 20,20 0,1 0,0 40,3 3,0 1,1 0,6 26,26 0,0 1,-26 -26Z" fill="#fff"/><path d="M72,42a16,16 0,0 1,16 -16,3 3,0 1,1 0,6 10,10 0,1 0,0 20,3 3,0 1,1 0,6 16,16 0,0 1,-16 -16Z" fill="#fff"/><path d="M96,60a8,8 0,0 1,-8 8,3 3,0 1,1 0,-6 2,2 0,0 0,0 -4,3 3,0 1,1 0,-6 8,8 0,0 1,8 8ZM96,24a8,8 0,0 1,-8 8,3 3,0 1,1 0,-6 2,2 0,0 0,0 -4,3 3,0 1,1 0,-6 8,8 0,0 1,8 8ZM46,60V24a2,2 0,1 0,-4 0v36a2,2 0,0 0,2 2v6a8,8 0,0 1,-7.99 -7.59L36,60V24a8,8 0,1 1,16 0v36a8,8 0,0 1,-8 8v-6a2,2 0,0 0,2 -2ZM105.01,77.01a3,3 0,0 1,4.24 4.24,64 64,0 0,1 -90.51,0 3,3 0,0 1,4.24 -4.24,58 58,0 0,0 82.02,0Z" fill="#fff"/></g></svg>
