<svg xmlns="http://www.w3.org/2000/svg" width="128" height="128" viewBox="0 0 128 128"><defs><clipPath id="clip0"><path d="M0,0h128v128H0z"/></clipPath></defs><g clip-path="url(#clip0)"><path d="M0,0h128v128H0z" fill="#fff"/><path d="M0,0h128v128H0z" fill="#f0f0f0"/><path d="M112,64c0,26.51 -21.49,48 -48,48S16,90.51 16,64s21.49,-48 48,-48 48,21.49 48,48" fill="#23623d"/><path d="M60.2,27.71c1.2,-3.68 6.41,-3.68 7.61,0l6.07,18.69a4,4 0,0 0,3.8 2.76H97.34c3.88,0 5.49,4.96 2.35,7.24L83.79,67.96a4,4 0,0 0,-1.45 4.47l6.07,18.69c1.2,3.68 -3.02,6.75 -6.16,4.47L66.35,84.04a4,4 0,0 0,-4.7 0L45.75,95.6c-3.13,2.28 -7.35,-0.79 -6.16,-4.47l6.07,-18.69a4,4 0,0 0,-1.45 -4.47L28.31,56.4c-3.13,-2.28 -1.52,-7.24 2.35,-7.24h19.66a4,4 0,0 0,3.8 -2.76z" fill="#fff"/></g></svg>
