<svg xmlns="http://www.w3.org/2000/svg" width="128" height="128" viewBox="0 0 128 128"><defs><clipPath id="clip0"><path d="M0,0h128v128H0z"/></clipPath></defs><g clip-path="url(#clip0)"><path d="M0,0h128v128H0z" fill="#ECD27E"/><path d="M0,0h128v128H0V0Z" fill="#ECD27E"/><path d="M0,56h128v72H0V56Z" fill="#E1C05F"/><path d="M78.21,100.42 L50.89,45.79c-1.33,-2.66 0.6,-5.79 3.58,-5.79h12.58a8,8 0,0 1,7.16 4.42l16,32c0.74,1.47 2.84,1.47 3.58,0l16,-32A8,8 0,0 1,116.94 40h15.06c1.84,0 3.03,1.93 2.21,3.58L132,48 128,56l-36,72 -2.89,5.79A4,4 0,0 1,85.53 136H70.47c-2.97,0 -4.91,-3.13 -3.58,-5.79L68,128l10.21,-20.42a8,8 0,0 0,0 -7.16Z" fill="#fff"/></g></svg>
