<svg xmlns="http://www.w3.org/2000/svg" width="128" height="128" viewBox="0 0 128 128"><path d="M0,0h128v128H0z" fill="#F8F8F8"/><path d="M19.47,64.68 L38.44,83.2c1.43,1.4 3.9,0.02 3.59,-1.95 -3.24,-20.64 2.46,-33.63 5.45,-42.54 0.61,-1.81 -1.35,-2.91 -2.72,-1.57l-25.3,24.69a2,2 0,0 0,0 2.86Z" fill="#FCCF00"/><path d="m26.41,86.41 l29.66,29.66c1.42,1.42 3.88,0.06 3.53,-1.91 -5.99,-33.77 3.98,-53.93 8.02,-67.33 0.55,-1.84 -1.51,-2.95 -2.87,-1.59L26.41,83.59a2,2 0,0 0,0 2.83Z" fill="#18288A"/><path d="m49.41,53.41 l29.66,29.66c1.42,1.42 3.88,0.06 3.53,-1.91 -5.99,-33.77 3.98,-53.93 8.02,-67.33 0.55,-1.84 -1.51,-2.95 -2.87,-1.59L49.41,50.59a2,2 0,0 0,0 2.83Z" fill="#AACC05"/><path d="M62.47,76.68 L81.44,95.2c1.43,1.4 3.9,0.02 3.59,-1.95 -3.24,-20.64 2.46,-33.63 5.45,-42.54 0.61,-1.81 -1.35,-2.91 -2.72,-1.57l-25.3,24.69a2,2 0,0 0,0 2.86Z" fill="#E51768"/><path d="m88.41,71.41 l11.66,11.66c1.42,1.42 3.95,0.05 3.71,-1.94 -1.54,-12.72 1.51,-21.27 3.59,-27.38 0.62,-1.82 -1.26,-2.88 -2.62,-1.52L88.41,68.59a2,2 0,0 0,0 2.83Z" fill="#C8C9CA"/></svg>
