<svg xmlns="http://www.w3.org/2000/svg" width="128" height="128" viewBox="0 0 128 128"><defs><clipPath id="clip0"><path d="M0,0h128v128H0z"/></clipPath></defs><g clip-path="url(#clip0)"><path d="M0,0h128v128H0V0Z" fill="#F0F0F0"/><path d="m46.38,36.19 l14.23,-22.76c1.57,-2.51 5.22,-2.51 6.78,0L81.62,36.19a4,4 0,0 0,5.89 1l11.74,-9.39c2.25,-1.8 5.6,-0.7 6.36,2.07l9.84,36.07c0.22,0.82 -0.63,1.51 -1.4,1.17 -41.88,-18.82 -58.2,-18.82 -100.07,0 -0.77,0.35 -1.63,-0.35 -1.4,-1.17l9.84,-36.07c0.76,-2.78 4.11,-3.87 6.36,-2.07l11.73,9.39a4,4 0,0 0,5.89 -1Z" fill="#00A0E8"/><path d="M58.91,12.37c2.35,-3.76 7.83,-3.76 10.18,0L83.32,35.13a2,2 0,0 0,2.94 0.5l11.73,-9.39c3.37,-2.7 8.4,-1.06 9.54,3.11l9.84,36.07c0.69,2.55 -1.93,4.52 -4.15,3.52C92.33,59.55 78.1,55 64,55c-14.1,0 -28.33,4.55 -49.22,13.94 -2.22,1 -4.84,-0.97 -4.15,-3.52l9.84,-36.07c1.14,-4.16 6.17,-5.8 9.54,-3.11l11.73,9.39a2,2 0,0 0,2.94 -0.5l14.23,-22.76ZM65.7,14.49a2,2 0,0 0,-3.39 0L48.08,37.25a6,6 0,0 1,-8.84 1.51l-11.73,-9.39a2,2 0,0 0,-3.18 1.03L15.04,64.44C35.03,55.57 49.46,51 64,51c14.54,0 28.97,4.57 48.96,13.44L103.67,30.4a2,2 0,0 0,-3.18 -1.03l-11.73,9.39a6,6 0,0 1,-8.84 -1.51L65.7,14.49Z" fill="#000"/><path d="M10,70.14a18,18 0,0 1,0.63 -4.74l5.44,-19.93 3.86,1.05 -5.44,19.93A14,14 0,0 0,14 70.14L14,84h-4L10,70.14ZM114,70.14c0,-1.25 -0.17,-2.48 -0.49,-3.68l-5.44,-19.93 3.86,-1.05 5.44,19.93a18,18 0,0 1,0.63 4.74L118,84h-4L114,70.14Z" fill="#000"/><path d="M14.37,66.93c41.44,-18.57 57.82,-18.57 99.26,0A4.01,4.01 0,0 1,116 70.58V84C72,64 56,64 12,84V70.58c0,-1.57 0.94,-3 2.37,-3.64Z" fill="#fff"/><path d="M64,67c14.79,0 29.46,4.73 50,13.9v-10.33c0,-0.77 -0.47,-1.5 -1.19,-1.82C92.14,59.49 78.01,55 64,55c-14.01,0 -28.14,4.49 -48.81,13.76A2.01,2.01 0,0 0,14 70.58v10.33C34.54,71.72 49.21,67 64,67ZM118,87.11 L115.17,85.82C93.21,75.84 78.54,71 64,71c-14.54,0 -29.21,4.84 -51.17,14.82L10,87.11v-16.53a6.01,6.01 0,0 1,3.55 -5.47C34.32,55.8 49.1,51 64,51c14.9,0 29.68,4.8 50.45,14.11a6.01,6.01 0,0 1,3.55 5.47v16.53Z" fill="#000"/><path d="M92,112H36c-13.26,0 -24,-10.74 -24,-24v-4c44,-20 60,-20 104,0v4c0,13.26 -10.74,24 -24,24Z" fill="#FEC2A8"/><path d="M114,85.29C92.68,75.67 78.28,71 64,71c-14.28,0 -28.68,4.67 -50,14.29L14,88c0,12.15 9.85,22 22,22h56c12.15,0 22,-9.85 22,-22v-2.71ZM118,88c0,14.36 -11.64,26 -26,26L36,114c-14.36,0 -26,-11.64 -26,-26v-5.29l1.17,-0.53C33.21,72.16 48.54,67 64,67c15.46,0 30.79,5.16 52.83,15.18l1.17,0.53L118,88Z" fill="#000"/><path d="M76,92c2.21,0 4.05,1.82 3.5,3.96A16,16 0,0 1,64 108a16,16 0,0 1,-15.5 -12.04C47.95,93.82 49.79,92 52,92h24Z" fill="#E93618"/><path d="M76,92c2.21,0 4.05,1.82 3.5,3.96l-0.14,0.51A16,16 0,0 1,64 108v-4a12,12 0,0 0,11.31 -8H52.69A11.99,11.99 0,0 0,64 104v4l-0.4,-0a16,16 0,0 1,-10.63 -4.4l-0.28,-0.28a16,16 0,0 1,-4.05 -6.84l-0.14,-0.51C47.95,93.82 49.79,92 52,92h24ZM44,86c0,3.31 -1.79,6 -4,6s-4,-2.69 -4,-6 1.79,-6 4,-6 4,2.69 4,6ZM92,86c0,3.31 -1.79,6 -4,6s-4,-2.69 -4,-6 1.79,-6 4,-6 4,2.69 4,6Z" fill="#000"/><path d="M36,100a4,4 0,1 1,-8 0,4 4,0 0,1 8,0ZM100,100a4,4 0,1 1,-8 0,4 4,0 0,1 8,0Z" fill="#D65939"/></g></svg>
