<svg xmlns="http://www.w3.org/2000/svg" width="128" height="128" viewBox="0 0 128 128" fill="none"><g clip-path="url(#a)"><path fill="#f0f0f0" d="M0 0h128v128H0z"/><path fill="#f0f0f0" d="M0 0h128v128H0z"/><path fill="#d85b48" d="M170 95.5c0 33.413-30.892 60.5-69 60.5s-69-27.087-69-60.5S62.892 35 101 35s69 27.087 69 60.5"/><path fill="#c5412d" d="M156 102c0 29.823-25.967 54-58 54-32.032 0-58-24.177-58-54s25.968-54 58-54c32.033 0 58 24.177 58 54"/><path fill="#c5412d" d="M156 102c0 29.823-25.967 54-58 54-32.032 0-58-24.177-58-54s25.968-54 58-54c32.033 0 58 24.177 58 54"/><path fill="#c5412d" d="M72 128c0 22.644-19.028 41-42.5 41S-13 150.644-13 128 6.028 87 29.5 87 72 105.356 72 128"/><path fill="#972d1d" d="M56 128c0 15.464-12.536 28-28 28S0 143.464 0 128s12.536-28 28-28 28 12.536 28 28"/><path fill="#972d1d" d="M146 111.5c0 24.577-21.938 44.5-49 44.5s-49-19.923-49-44.5S69.938 67 97 67s49 19.923 49 44.5"/><path fill="#d7371f" d="M36 54c0 5.523-4.477 10-10 10s-10-4.477-10-10 4.477-10 10-10 10 4.477 10 10"/><path fill="#d7371f" d="M36 54c0 5.523-4.477 10-10 10s-10-4.477-10-10 4.477-10 10-10 10 4.477 10 10M16 76a4 4 0 1 1-8 0 4 4 0 0 1 8 0"/><path fill="#d7371f" d="M16 76a4 4 0 1 1-8 0 4 4 0 0 1 8 0M108 12a4 4 0 1 1-8 0 4 4 0 0 1 8 0"/><path fill="#d7371f" d="M108 12a4 4 0 1 1-8 0 4 4 0 0 1 8 0M80 20c0 6.627-5.373 12-12 12s-12-5.373-12-12S61.373 8 68 8s12 5.373 12 12"/><path fill="#d7371f" d="M80 20c0 6.627-5.373 12-12 12s-12-5.373-12-12S61.373 8 68 8s12 5.373 12 12"/><path fill="#8ece67" d="M96 14a6 6 0 1 1-12 0 6 6 0 0 1 12 0M120 20a4 4 0 1 1-8 0 4 4 0 0 1 8 0M16 40a4 4 0 1 1-8 0 4 4 0 0 1 8 0"/><path fill="#67a1ce" d="M52 38a6 6 0 1 1-12 0 6 6 0 0 1 12 0M104 28a4 4 0 1 1-8 0 4 4 0 0 1 8 0"/></g><defs><clipPath id="a"><path fill="#fff" d="M0 0h128v128H0z"/></clipPath></defs></svg>