<svg xmlns="http://www.w3.org/2000/svg" width="128" height="128" viewBox="0 0 128 128"><defs><clipPath id="clip0"><path d="M0,0h128v128H0z"/></clipPath></defs><g clip-path="url(#clip0)"><path d="M0,0h128v128H0z" fill="#f0f0f0"/><path d="M0,0h128v128H0z" fill="#73d6fc"/><path d="M44.18,14.22c1.12,-3.65 6.16,-3.76 7.53,-0.34l0.12,0.34 13.96,45.37a15,15 0,0 1,0 8.82l-13.96,45.37c-1.16,3.77 -6.49,3.77 -7.65,0L30.22,68.41a15,15 0,0 1,0 -8.82z" fill="#006ca3"/><path d="M76.18,14.22c1.12,-3.65 6.16,-3.76 7.53,-0.34l0.12,0.34 13.96,45.37a15,15 0,0 1,0 8.82l-13.96,45.37c-1.16,3.77 -6.49,3.77 -7.65,0L62.22,68.41a15,15 0,0 1,0 -8.82zM67.95,61.35a9,9 0,0 0,0 5.29L80,105.8l12.05,-39.15a9,9 0,0 0,0 -5.29L80,22.2z" fill="#006ca3"/><path d="M73.31,23.54c2.03,-6.59 11.35,-6.59 13.38,0l11.09,36.05a15,15 0,0 1,0 8.82l-11.09,36.05c-2.03,6.59 -11.35,6.59 -13.38,0L62.22,68.41a15,15 0,0 1,0 -8.82zM80.96,25.31c-0.29,-0.94 -1.62,-0.94 -1.91,0l-11.09,36.05a9,9 0,0 0,0 5.29l11.09,36.04c0.29,0.94 1.62,0.94 1.91,0l11.09,-36.04a9,9 0,0 0,0 -5.29z" fill="#006ca3"/></g></svg>
