<svg xmlns="http://www.w3.org/2000/svg" width="128" height="128" viewBox="0 0 128 128"><defs><clipPath id="clip0"><path d="M0,0h128v128H0z"/></clipPath></defs><g clip-path="url(#clip0)"><path d="M0,0h128v128H0z" fill="#fff"/><path d="M0,0h128v128H0z" fill="#ed1e1c"/><path d="M31.18,12a5,5 0,0 1,4.86 3.8l0.05,0.22 8.62,43.12A16,16 0,0 0,60.4 72h7.21a16,16 0,0 0,15.69 -12.86l8.62,-43.12 0.05,-0.22A5,5 0,0 1,96.82 12h6.09a5,5 0,0 1,4.98 5.41l-7.83,94A5,5 0,0 1,95.08 116h-6.33a5,5 0,0 1,-4.81 -3.63l-4.48,-15.67A12,12 0,0 0,67.93 88h-7.86a12,12 0,0 0,-11.54 8.7l-4.48,15.67A5,5 0,0 1,39.25 116H32.92a5,5 0,0 1,-4.98 -4.59l-7.83,-94A5,5 0,0 1,25.09 12z" fill="#fff"/></g></svg>
