<svg xmlns="http://www.w3.org/2000/svg" width="128" height="128" viewBox="0 0 128 128"><defs><clipPath id="clip0"><path d="M0,0h128v128H0z"/></clipPath></defs><g clip-path="url(#clip0)"><path d="M0,0h128v128H0z" fill="#f0f0f0"/><path d="M0,0h128v128H0z" fill="#305682"/><path d="M52,116V75.72a28,28 0,0 0,-6.63 -18.09L8.95,14.58a4,4 0,0 1,6.11 -5.17L51.48,52.47A36,36 0,0 1,60 75.72V116a4,4 0,0 1,-8 0m16,0V75.72a36,36 0,0 1,8.52 -23.25l36.43,-43.05a4,4 0,0 1,6.11 5.17L82.63,57.64A28,28 0,0 0,76 75.72V116a4,4 0,0 1,-8 0M92.88,9.5a4,4 0,0 1,6.25 5L73.37,46.69c-4.8,6.01 -13.94,6.01 -18.74,0L28.88,14.5a4,4 0,0 1,6.25 -5l25.75,32.19a4,4 0,0 0,6.25 0z" fill="#fff"/><path d="M84,116V76a4,4 0,1 1,8 0v40a4,4 0,0 1,-8 0" fill="#f9bb4d"/></g></svg>
