<svg xmlns="http://www.w3.org/2000/svg" width="128" height="128" viewBox="0 0 128 128"><path d="M0,0h128v128H0z" fill="#F9BECC"/><path d="M112,64c0,-26.51 -21.49,-48 -48,-48S16,37.49 16,64s21.49,48 48,48v8C33.07,120 8,94.93 8,64S33.07,8 64,8s56,25.07 56,56 -25.07,56 -56,56v-8c26.51,0 48,-21.49 48,-48Z" fill="#fff"/><path d="M62.4,12.64a1.82,1.82 0,0 1,3.19 0A49.77,49.77 0,0 1,72 37.14c0,8.53 -2.14,16.56 -5.91,23.59 -0.77,1.43 0.29,3.25 1.91,3.3a49.77,49.77 0,0 1,23.39 6.68,49.76 49.76,0 0,1 18.01,17.79 1.82,1.82 0,0 1,-1.6 2.77,49.76 49.76,0 0,1 -24.41,-6.7 49.76,49.76 0,0 1,-17.48 -16.91c-0.86,-1.38 -2.96,-1.38 -3.81,0a49.76,49.76 0,0 1,-17.48 16.91,49.77 49.77,0 0,1 -24.41,6.7 1.82,1.82 0,0 1,-1.6 -2.77c4.23,-7.15 10.31,-13.34 18.01,-17.79A49.77,49.77 0,0 1,60 64.03c1.62,-0.05 2.67,-1.87 1.91,-3.3A49.77,49.77 0,0 1,56 37.14c0,-8.9 2.33,-17.25 6.4,-24.49Z" fill="#fff"/></svg>
