<svg xmlns="http://www.w3.org/2000/svg" width="128" height="128" viewBox="0 0 128 128"><path d="M0,0h128v128H0z" fill="#F0F0F0"/><path d="M100,16c6.63,0 12,5.37 12,12v32c0,6.63 -5.37,12 -12,12H82c-5.52,0 -10,4.48 -10,10v18c0,6.63 -5.37,12 -12,12H28c-6.63,0 -12,-5.37 -12,-12V68c0,-6.63 5.37,-12 12,-12h18c5.52,0 10,-4.48 10,-10V28c0,-6.63 5.37,-12 12,-12h32Z" fill="#007CC0"/><path d="M96,24a8,8 0,0 1,8 8v24a8,8 0,0 1,-8 8H78.49A14.48,14.48 0,0 0,64 78.49V96a8,8 0,0 1,-8 8H32a8,8 0,0 1,-8 -8V72a8,8 0,0 1,8 -8h17.51A14.48,14.48 0,0 0,64 49.51V32a8,8 0,0 1,8 -8h24Z" fill="#27A8DD"/><path d="M32,76a4,4 0,0 1,4 -4h16a4,4 0,0 1,4 4v16a4,4 0,0 1,-4 4H36a4,4 0,0 1,-4 -4V76ZM72,36a4,4 0,0 1,4 -4h16a4,4 0,0 1,4 4v16a4,4 0,0 1,-4 4H76a4,4 0,0 1,-4 -4V36Z" fill="#007CC0"/><path d="M40,82a2,2 0,0 1,2 -2h4a2,2 0,0 1,2 2v4a2,2 0,0 1,-2 2h-4a2,2 0,0 1,-2 -2v-4ZM80,42a2,2 0,0 1,2 -2h4a2,2 0,0 1,2 2v4a2,2 0,0 1,-2 2h-4a2,2 0,0 1,-2 -2v-4Z" fill="#27A8DD"/></svg>
