<svg xmlns="http://www.w3.org/2000/svg" width="128" height="128" viewBox="0 0 128 128"><defs><clipPath id="clip0"><path d="M0,0h128v128H0z"/></clipPath></defs><g clip-path="url(#clip0)"><path d="M0,0h128v128H0z" fill="#F4F8FB"/><path d="M296,154c0,46.39 -77.23,84 -172.5,84C28.23,238 -49,200.39 -49,154s77.23,-84 172.5,-84c95.27,0 172.5,37.61 172.5,84Z" fill="#C3D9F1"/><path d="M36,36c0,-11.05 8.95,-20 20,-20h36a4,4 0,0 1,4 4v8a4,4 0,0 1,-4 4H56a4,4 0,0 0,-4 4v28h36a4,4 0,0 1,4 4v8a4,4 0,0 1,-4 4H52v28a4,4 0,0 1,-4 4h-8a4,4 0,0 1,-4 -4V36Z" fill="#0364A6"/></g></svg>
