<svg xmlns="http://www.w3.org/2000/svg" width="128" height="128" viewBox="0 0 128 128"><path d="M0,0h128v128H0z" fill="#64B607"/><path d="M120,64c0,30.93 -25.07,56 -56,56S8,94.93 8,64 33.07,8 64,8s56,25.07 56,56Z" fill="#000"/><path d="M44.86,61.16c0,6.66 -5.39,12.05 -12.05,12.05 -6.66,0 -12.05,-5.39 -12.05,-12.05 0,-6.66 5.39,-12.05 12.05,-12.05 6.66,0 12.05,5.39 12.05,12.05ZM81.67,70.29c0.87,7.78 -5.99,14.94 -15.32,15.99 -9.34,1.05 -17.61,-4.41 -18.49,-12.19 -0.87,-7.78 5.99,-14.94 15.32,-15.99 9.34,-1.05 17.61,4.41 18.49,12.19Z" fill="#fff"/><path d="M39.19,61.17a6.38,6.38 0,1 1,-12.76 0,6.38 6.38,0 0,1 12.76,0Z" fill="#000"/><path d="M105.82,52.66c0,6.66 -5.39,12.05 -12.05,12.05 -6.66,0 -12.05,-5.39 -12.05,-12.05 0,-6.66 5.39,-12.05 12.05,-12.05 6.66,0 12.05,5.39 12.05,12.05Z" fill="#fff"/><path d="M71.28,69.87a3,3 0,1 1,4.24 4.24,16.3 16.3,0 0,1 -19.68,2.59 3,3 0,1 1,3 -5.2,10.3 10.3,0 0,0 12.44,-1.64ZM100.15,52.66a6.38,6.38 0,1 1,-12.76 0,6.38 6.38,0 0,1 12.76,0Z" fill="#000"/></svg>
