<svg xmlns="http://www.w3.org/2000/svg" width="128" height="128" viewBox="0 0 128 128" fill="none"><g clip-path="url(#a)"><path fill="#f0f0f0" d="M0 0h128v128H0z"/><path fill="#9bd9e3" d="M0 0h128v128H0z"/><path fill="#fefefe" d="M124 112c0 57.438-26.863 104-60 104S4 169.438 4 112 30.863 8 64 8s60 46.562 60 104"/><path fill="#cf3249" d="M0 104c47.999 12 80 12 128 0v24H0z"/><path fill="#919094" d="M57.565 47.07c2.396-5.66 10.474-5.66 12.87 0l.112.279L83.61 81.877a6 6 0 1 1-11.222 4.246L64 63.954l-8.389 22.169a6 6 0 1 1-11.222-4.246l13.064-34.528z"/></g><defs><clipPath id="a"><path fill="#fff" d="M0 0h128v128H0z"/></clipPath></defs></svg>