<svg xmlns="http://www.w3.org/2000/svg" width="128" height="128" viewBox="0 0 128 128"><path d="M0,0h128v128H0z" fill="#DCDDDD"/><path d="M0,0h128v16H0V0Z" fill="#AFABD2"/><path d="M0,16h128v16H0V16Z" fill="#7FC3E6"/><path d="M0,32h128v16H0V32Z" fill="#BFD791"/><path d="M0,48h128v16H0V48Z" fill="#F3EA9C"/><path d="M0,64h128v16H0V64Z" fill="#F3C891"/><path d="M0,80h128v16H0V80Z" fill="#E3B9CD"/><path d="M0,96h128v16H0V96Z" fill="#DD9897"/><path d="M82.39,24c3.65,0 6.46,3.23 5.94,6.85l-10.86,76A6,6 0,0 1,71.53 112H59.95c-3.82,0 -6.67,-3.52 -5.87,-7.26l9.93,-46.32A2,2 0,0 0,62.05 56H37c-8.84,0 -16,-7.16 -16,-16s7.16,-16 16,-16h45.39Z" fill="#FCF150"/><path d="M102,32a8,8 0,1 1,-16 0,8 8,0 0,1 16,0Z" fill="#FCF150"/><path d="M98,32a4,4 0,1 0,-4 4v4a8,8 0,1 1,0 -16,8 8,0 0,1 0,16v-4a4,4 0,0 0,4 -4Z" fill="#362218"/><path d="M84,14a6,6 0,1 1,-12 0,6 6,0 0,1 12,0Z" fill="#FCF150"/><path d="M80,14a2,2 0,1 0,-2 2v4a6,6 0,1 1,0 -12,6 6,0 0,1 0,12v-4a2,2 0,0 0,2 -2Z" fill="#362218"/><path d="M76,26v-8a2,2 0,1 1,4 0v8a2,2 0,1 1,-4 0ZM36.24,39.48a2,2 0,0 1,3.86 1.05l-0.69,2.54a23.24,23.24 0,0 1,-6 10.35,2 2,0 1,1 -2.83,-2.83 19.24,19.24 0,0 0,4.96 -8.57l0.69,-2.54Z" fill="#392219"/><path d="M56,34a2,2 0,1 1,4 0,4 4,0 0,0 8,0 2,2 0,1 1,4 0,8 8,0 1,1 -16,0Z" fill="#362218"/><path d="M62,44v-4a2,2 0,1 1,4 0v4a2,2 0,1 1,-4 0ZM68.59,36.59a2,2 0,0 1,2.83 0l3,3a2,2 0,1 1,-2.83 2.83l-3,-3a2,2 0,0 1,0 -2.83Z" fill="#392219"/><path d="M59,95a8,8 0,1 1,-3.2 15.33,5.98 5.98,0 0,1 -1.72,-5.59l1.97,-9.18A7.97,7.97 0,0 1,59 95Z" fill="#EBCB5F"/><path d="M74,79a7.99,7.99 0,0 1,6.89 3.93l-1.41,9.9A8,8 0,1 1,74 79Z" fill="#BAC95E"/><path d="M66,60a8,8 0,1 1,-5.32 13.97l2.91,-13.6A8,8 0,0 1,66 60Z" fill="#8CC5E8"/><path d="M82,45c1.52,0 2.93,0.42 4.14,1.15L84.06,60.73A8,8 0,1 1,82 45Z" fill="#B9B2D4"/><path d="M82.39,24c3.65,0 6.46,3.23 5.94,6.85l-10.86,76A6,6 0,0 1,71.53 112H59.95c-3.82,0 -6.67,-3.52 -5.87,-7.26l9.93,-46.32A2,2 0,0 0,62.05 56H37c-8.84,0 -16,-7.16 -16,-16s7.16,-16 16,-16h45.39ZM25,40c0,6.63 5.37,12 12,12h25.05c3.82,0 6.67,3.52 5.87,7.26l-9.93,46.32A2,2 0,0 0,59.95 108h11.58a2,2 0,0 0,1.98 -1.72l10.86,-76A2,2 0,0 0,82.39 28H37c-6.63,0 -12,5.37 -12,12Z" fill="#392219"/></svg>
