<svg xmlns="http://www.w3.org/2000/svg" width="128" height="128" viewBox="0 0 128 128"><defs><clipPath id="clip0"><path d="M0,0h128v128H0z"/></clipPath></defs><g clip-path="url(#clip0)"><path d="M0,0h128v128H0z" fill="#fff"/><path d="M0,0h128v128H0V0Z" fill="#F0F0F0"/><path d="M82,32c0,5.52 -4.48,10 -10,10s-10,-4.48 -10,-10 4.48,-10 10,-10 10,4.48 10,10Z" fill="#DE0020"/><path d="m62.86,28.16 l-19.93,2.85c-1.14,0.16 -1.14,1.82 0,1.98l19.93,2.85a1,1 0,0 0,1.14 -0.99v-5.69a1,1 0,0 0,-1.14 -0.99Z" fill="#DE0020"/><path d="M85.36,15.95c1.11,-1.66 3.28,-2.29 5.04,-1.35C108.02,24.04 120,42.62 120,64c0,30.93 -25.07,56 -56,56S8,94.93 8,64c0,-21.38 11.98,-39.96 29.59,-49.4 1.76,-0.94 3.93,-0.32 5.04,1.35 1.27,1.91 0.7,4.48 -1.1,5.92C33.29,28.47 28,38.61 28,50c0,19.88 16.12,36 36,36s36,-16.12 36,-36c0,-11.39 -5.29,-21.54 -13.54,-28.13 -1.79,-1.43 -2.37,-4.01 -1.1,-5.92Z" fill="#DE0020"/><path d="M55.94,54.06 L70,40v-8h12a19.31,19.31 0,0 1,-5.66 13.66l-9.27,9.27c-3.9,3.9 -3.9,10.24 0,14.14l8.63,8.63a7.84,7.84 0,0 0,10.44 0.58L89,76l-1,12H40V77l3.2,2.4A3,3 0,0 0,48 77v-3.78a27.1,27.1 0,0 1,7.94 -19.16Z" fill="#DE0020"/><path d="M72,42c-5.52,0 -10,-4.48 -10,-10s4.48,-10 10,-10 10,4.48 10,10 -4.48,10 -10,10Z" fill="#DE0020"/></g></svg>
