<svg xmlns="http://www.w3.org/2000/svg" width="128" height="128" viewBox="0 0 128 128"><path d="M0,0h128v128H0z" fill="#F0F0F0"/><path d="M86,12c16.18,0 29.72,11.31 33.15,26.45 0.64,2.85 0.66,5.92 -0.74,8.48 -1.3,2.39 -3.39,4.31 -6.42,5.07 -8,2 -12,-4 -12,-8v-0c0,-4 0,-8 -4,-8 -4,0 -5,4 -4,8C93,48 95,54.99 95,55c2.77,10.37 0.95,19.69 -0.16,23.83v0l-0,0C90.95,93.33 77.72,104 62,104c-11.18,0 -21.09,-5.39 -27.29,-13.72 -2.39,-3.21 0.26,-7.28 4.26,-7.28 2.88,0 5.17,2.35 6.82,4.71A9.99,9.99 0,0 0,54 92c5.52,0 10,-4.48 10,-10a9.95,9.95 0,0 0,-1.17 -4.69L55,57.5c-2.59,-6.48 -2.72,-14.98 -1.93,-20.27a0.07,0.07 0,0 1,0.05 -0.06,0.07 0.07,0 0,0 0.05,-0.05C57.08,22.65 70.29,12 86,12Z" fill="#B7926B"/><path d="M28,84c-0.8,10.8 -1.5,13.5 -6.5,19l6.5,5 8,-8 8,8 6,-6.5 -4,-8V84c4,4 6.4,6.34 8.5,4 3.6,-4 -6.83,-13.67 -12.5,-18H30c-3.63,8.16 -7.8,9.74 -10.65,10.82 -1.86,0.71 -3.16,1.2 -3.36,3.18 -0,6 7.83,2.17 12,0Z" fill="#B7926B" fill-rule="evenodd"/><path d="m30,106 l-6,-6 -2,2a2.83,2.83 0,0 1,-4 0,2.83 2.83,0 1,0 -4,4l5.88,5.88a3,3 0,0 0,4.24 0L30,106ZM49,101l-6,6 2,2a2.83,2.83 0,0 1,0 4,2.83 2.83,0 1,0 4,4l5.88,-5.88a3,3 0,0 0,0 -4.24L49,101Z" fill="#EE9C29"/><path d="M52,60c0,6.63 -7.16,12 -16,12 -8.84,0 -16,-5.37 -16,-12s7.16,-12 16,-12c8.84,0 16,5.37 16,12Z" fill="#B7926B"/><path d="M42,48c0,3.31 -0.89,6 -2,6 -1.1,0 -2,-2.69 -2,-6s0.9,-6 2,-6c1.11,0 2,2.69 2,6Z" fill="#B7926B"/><path d="M22,62a2,2 0,1 1,-4 0,2 2,0 0,1 4,0Z" fill="#000"/><path d="M22,62a2,2 0,1 1,-4 0,2 2,0 0,1 4,0Z" fill="#000"/><path d="M48.07,51.07c-2.34,2.34 -4.88,3.61 -5.66,2.83 -0.78,-0.78 0.49,-3.31 2.83,-5.66s4.88,-3.61 5.66,-2.83c0.78,0.78 -0.49,3.31 -2.83,5.66Z" fill="#B7926B"/><path d="M36,58a4,4 0,1 1,-8 0,4 4,0 0,1 8,0Z" fill="#fff"/><path d="M34,58a2,2 0,1 1,-4 0,2 2,0 0,1 4,0Z" fill="#000"/></svg>
