<svg xmlns="http://www.w3.org/2000/svg" width="128" height="128" viewBox="0 0 128 128"><path d="M0,0h128v128H0z" fill="#F0F0F0"/><path d="M14,56c0,-7.18 5.82,-13 13,-13s13,5.82 13,13v30c0,7.18 -5.82,13 -13,13s-13,-5.82 -13,-13L14,56ZM22.93,37.6a8,8 0,0 0,8.14 0l6.27,-3.71c5.24,-3.1 5.24,-10.68 0,-13.78l-6.27,-3.71 -0.24,-0.14a8,8 0,0 0,-7.9 0.14l-6.27,3.71c-5.24,3.1 -5.24,10.68 0,13.78l6.27,3.71ZM29.03,34.15a4,4 0,0 1,-4.07 0l-6.28,-3.71c-2.62,-1.55 -2.62,-5.34 0,-6.89l6.27,-3.71a4,4 0,0 1,4.07 0l6.28,3.71c2.62,1.55 2.62,5.34 0,6.89l-6.27,3.71Z" fill="#8D7044"/><path d="M77,42h30.64c6.82,0 12.36,5.53 12.36,12.36 0,6.82 -5.53,12.36 -12.36,12.36H79.11a4.79,4.79 0,0 0,0 9.58h29.04c6.55,0 11.85,5.31 11.85,11.85S114.69,100 108.15,100H77c-16.02,0 -29,-12.98 -29,-29s12.98,-29 29,-29Z" fill="#ff0000"/><path d="M88,97c0,5.52 -4.48,10 -10,10 -5.52,0 -10,-4.48 -10,-10s4.48,-10 10,-10c5.52,0 10,4.48 10,10Z" fill="#fff"/><path d="M84,97a6,6 0,1 0,-6 6v4c-5.52,0 -10,-4.48 -10,-10s4.48,-10 10,-10c5.52,0 10,4.48 10,10s-4.48,10 -10,10v-4a6,6 0,0 0,6 -6Z" fill="#ff0000"/><path d="M113,97c0,5.52 -4.48,10 -10,10 -5.52,0 -10,-4.48 -10,-10s4.48,-10 10,-10c5.52,0 10,4.48 10,10Z" fill="#fff"/><path d="M109,97a6,6 0,1 0,-6 6v4c-5.52,0 -10,-4.48 -10,-10s4.48,-10 10,-10c5.52,0 10,4.48 10,10s-4.48,10 -10,10v-4a6,6 0,0 0,6 -6Z" fill="#ff0000"/></svg>
