<svg xmlns="http://www.w3.org/2000/svg" width="128" height="128" viewBox="0 0 128 128" fill="none"><g clip-path="url(#a)"><path fill="#fff" d="M0 0h128v128H0z"/><path fill="#f0f0f0" d="M0 0h128v128H0z"/><path fill="#ff0000" d="M64 28a56 56 0 0 1 55.92 53.001C120.008 82.656 118.657 84 117 84h-6c-1.657 0-2.989-1.345-3.102-2.998a44 44 0 0 0-12.786-28.114 44 44 0 0 0-75.01 28.114C19.99 82.655 18.657 84 17 84h-6c-1.657 0-3.008-1.344-2.92-2.999A56 56 0 0 1 64 28"/><path fill="#006837" d="M8 92a4 4 0 0 1 4-4h104a4 4 0 0 1 4 4v4a4 4 0 0 1-4 4H12a4 4 0 0 1-4-4z"/><path fill="#ff0000" d="M85.001 67.93c0 1.781 2.154 2.674 3.414 1.414l7.172-7.172c1.26-1.26 3.414-.367 3.414 1.414V82a2 2 0 0 1-2 2h-2a2 2 0 0 1-2-2v-3.93c0-1.781-2.154-2.673-3.414-1.413l-6.758 6.757a2 2 0 0 1-1.414.586H81a2 2 0 0 1-2-2v-4.19c0-1.87-2.339-2.717-3.536-1.28l-5.626 6.75a2 2 0 0 1-1.536.72h-2.605c-1.696 0-2.622-1.978-1.536-3.28l17.303-20.763c1.197-1.437 3.536-.59 3.536 1.28z"/></g><defs><clipPath id="a"><path fill="#fff" d="M0 0h128v128H0z"/></clipPath></defs></svg>