<svg xmlns="http://www.w3.org/2000/svg" width="128" height="128" viewBox="0 0 128 128"><defs><clipPath id="clip0"><path d="M0,0h128v128H0z"/></clipPath></defs><g clip-path="url(#clip0)"><path d="M0,0h128v128H0z" fill="#F0F0F0"/><path d="M0,0h128v128H0V0Z" fill="#F0F0F0"/><path d="M35.03,12a12,12 0,0 1,8.48 3.52l0.97,0.97A12,12 0,0 0,52.97 20H108c6.63,0 12,5.37 12,12v56c0,6.63 -5.37,12 -12,12H20c-6.63,0 -12,-5.37 -12,-12V24c0,-6.63 5.37,-12 12,-12h15.03Z" fill="#0087AF"/><path d="M8,44c0,-6.63 5.37,-12 12,-12h88c6.63,0 12,5.37 12,12v56c0,6.63 -5.37,12 -12,12H20c-6.63,0 -12,-5.37 -12,-12V44Z" fill="#52D8FF"/><path d="M84,80V64c0,-4.42 -3.58,-8 -8,-8H52A8,8 0,0 0,44 64v14.75a2,2 0,1 1,-4 0V64c0,-6.63 5.38,-12 12,-12h23.99C82.62,52 88,57.37 88,64v16c0,6.63 -5.37,12 -12,12H62.26a2,2 0,0 1,0 -4H76a8,8 0,0 0,8 -8Z" fill="#F5FBFE"/><path d="M55.72,72.76a9.47,9.47 0,0 1,13.31 0c3.75,3.71 3.75,9.77 0,13.47l-5.25,5.19a2,2 0,0 1,-2.81 -2.85l5.25,-5.19a5.47,5.47 0,1 0,-7.69 -7.78L43.4,90.55a2,2 0,0 1,-2.81 -2.85l15.12,-14.94Z" fill="#F5FBFE"/></g></svg>
