<svg xmlns="http://www.w3.org/2000/svg" width="128" height="128" viewBox="0 0 128 128"><defs><clipPath id="clip0"><path d="M0,0h128v128H0z"/></clipPath></defs><g clip-path="url(#clip0)"><path d="M0,0h128v128H0z" fill="#fff"/><path d="M0,0h128v128H0z" fill="#E33628"/><path d="M78.35,15.15c9.87,2.64 16.36,11.59 16.31,21.35 -0.01,2.07 1.21,4.05 3.21,4.58l13.94,3.74c7.47,2 11.9,9.68 9.9,17.15 -2,7.47 -9.68,11.9 -17.15,9.9l-11.15,-2.99c-1.24,-0.33 -2.36,-0.96 -3.35,-1.77a35.87,35.87 0,0 0,-13.44 -6.86L53.44,54.03a35.87,35.87 0,0 0,-15.07 -0.77c-1.26,0.2 -2.56,0.19 -3.79,-0.14L23.43,50.13c-7.47,-2 -11.9,-9.68 -9.9,-17.15 2,-7.47 9.68,-11.9 17.15,-9.9L44.62,26.82c2,0.54 4.04,-0.57 5.07,-2.37 4.83,-8.48 14.93,-12.98 24.8,-10.34l3.86,1.03Z" fill="#751913"/><path d="M79.93,99.9a36,36 0,0 1,-49.18 -13.18M77.11,75.22a8,8 0,0 1,10.93 2.93" fill="none" stroke="#751913" stroke-width="8" stroke-linecap="round"/><path d="M58.82,80.32m-3.86,-1.04a4,4 99.22,1 1,7.73 2.07a4,4 99.22,1 1,-7.73 -2.07" fill="#751913"/><path d="M41.58,67.42m-7.73,-2.07a8,8 51.1,1 1,15.45 4.14a8,8 51.1,1 1,-15.45 -4.14" fill="#751913"/><path d="M0,0h128v128H0V0Z" fill="#E33628"/><path d="M78.35,15.15c9.87,2.64 16.36,11.59 16.31,21.35 -0.01,2.07 1.21,4.05 3.21,4.58l13.94,3.74c7.47,2 11.9,9.68 9.9,17.15 -2,7.47 -9.68,11.9 -17.15,9.9l-11.15,-2.99c-1.24,-0.33 -2.36,-0.96 -3.35,-1.77a35.87,35.87 0,0 0,-13.44 -6.86L53.44,54.03a35.87,35.87 0,0 0,-15.07 -0.77c-1.26,0.2 -2.56,0.19 -3.79,-0.14L23.43,50.13c-7.47,-2 -11.9,-9.68 -9.9,-17.15 2,-7.47 9.68,-11.9 17.15,-9.9L44.62,26.82c2,0.54 4.04,-0.57 5.07,-2.37 4.83,-8.48 14.93,-12.98 24.8,-10.34l3.86,1.03ZM77.93,96.44a4,4 0,0 1,4 6.93,40 40,0 0,1 -54.64,-14.64 4,4 0,0 1,6.93 -4A32,32 0,0 0,77.93 96.44ZM79.11,78.68a4,4 0,0 1,-4 -6.93A12,12 0,0 1,91.5 76.15a4,4 0,0 1,-6.93 4,4 4,0 0,0 -5.46,-1.46ZM62.69,81.35a4,4 0,1 1,-7.73 -2.07,4 4,0 0,1 7.73,2.07ZM49.3,69.49a8,8 0,1 1,-15.45 -4.14,8 8,0 0,1 15.45,4.14Z" fill="#751913"/></g></svg>
