<svg xmlns="http://www.w3.org/2000/svg" width="128" height="128" viewBox="0 0 128 128"><defs><clipPath id="clip0"><path d="M0,0h128v128H0z"/></clipPath></defs><g clip-path="url(#clip0)"><path d="M0,0h128v128H0z" fill="#F0F0F0"/><path d="M0,0h128v128H0V0Z" fill="#F0F0F0"/><path d="M51.32,69.18c-6.86,25.61 -21.07,44.05 -31.74,41.19 -10.67,-2.86 -13.76,-25.93 -6.89,-51.54 6.86,-25.61 21.07,-44.05 31.74,-41.19 10.67,2.86 13.76,25.93 6.89,51.54Z" fill="#A4F8FB"/><path d="M83.32,69.18c-6.86,25.61 -21.07,44.05 -31.74,41.19 -10.67,-2.86 -13.76,-25.93 -6.89,-51.54 6.86,-25.61 21.07,-44.05 31.74,-41.19 10.67,2.86 13.76,25.93 6.89,51.54Z" fill="#73C6E7"/><path d="M115.32,69.18c-6.86,25.61 -21.07,44.05 -31.74,41.19 -10.67,-2.86 -13.76,-25.93 -6.89,-51.54 6.86,-25.61 21.07,-44.05 31.74,-41.19 10.67,2.86 13.76,25.93 6.89,51.54Z" fill="#3431CE"/></g></svg>
