<svg xmlns="http://www.w3.org/2000/svg" width="128" height="128" viewBox="0 0 128 128"><path d="M0,0h128v128H0z" fill="#DCDDDD"/><path d="M8,48a8,8 0,0 1,8 -8h96a8,8 0,0 1,8 8v24.69a8,8 0,0 1,-2.34 5.66l-3.31,3.31A8,8 0,0 1,108.69 84H16a8,8 0,0 1,-8 -8V48Z" fill="#E15B2C"/><path d="M44,84a8,8 0,1 1,-16 0,8 8,0 0,1 16,0ZM100,84a8,8 0,1 1,-16 0,8 8,0 0,1 16,0Z" fill="#E15B2C"/><path d="M16,50a2,2 0,0 1,2 -2h10a2,2 0,0 1,2 2v24a2,2 0,0 1,-2 2H18a2,2 0,0 1,-2 -2V50ZM34,50a2,2 0,0 1,2 -2h4a2,2 0,0 1,2 2v12a2,2 0,0 1,-2 2h-4a2,2 0,0 1,-2 -2V50ZM46,50a2,2 0,0 1,2 -2h4a2,2 0,0 1,2 2v12a2,2 0,0 1,-2 2h-4a2,2 0,0 1,-2 -2V50ZM58,50a2,2 0,0 1,2 -2h14a2,2 0,0 1,2 2v24a2,2 0,0 1,-2 2H60a2,2 0,0 1,-2 -2V50ZM80,50a2,2 0,0 1,2 -2h4a2,2 0,0 1,2 2v12a2,2 0,0 1,-2 2h-4a2,2 0,0 1,-2 -2V50ZM92,50a2,2 0,0 1,2 -2h4a2,2 0,0 1,2 2v12a2,2 0,0 1,-2 2h-4a2,2 0,0 1,-2 -2V50ZM104,50a2,2 0,0 1,2 -2h4a2,2 0,0 1,2 2v12a2,2 0,0 1,-2 2h-4a2,2 0,0 1,-2 -2V50Z" fill="#D9D9D9"/></svg>
