<svg xmlns="http://www.w3.org/2000/svg" width="128" height="128" viewBox="0 0 128 128"><defs><clipPath id="clip0"><path d="M0,0h128v128H0z"/></clipPath></defs><g clip-path="url(#clip0)"><path d="M0,0h128v128H0z" fill="#FFE5E9"/><path d="M48.15,20.7a42,42 0,1 1,59.4 59.4l-91.15,91.15 -59.4,-59.4 91.15,-91.15Z" fill="#FCC1CB"/><path d="M103.92,75.22a36.01,36.01 0,0 0,7.18 -38.6,35.99 35.99,0 0,0 -19.48,-19.48 36,36 0,0 0,-38.6 7.18l-0.63,0.62 -86.91,86.91 50.91,50.91 86.91,-86.91 0.62,-0.63ZM16.4,171.25L-43,111.85l91.15,-91.15A42,42 0,0 1,60.83 12l0.95,-0.41a42,42 0,0 1,15.04 -3.18l1.03,-0.01a42,42 0,0 1,15.11 2.81l0.96,0.38a42,42 0,0 1,25.93 38.8,42.01 42.01,0 0,1 -12.3,29.7l-91.15,91.15Z" fill="#fff"/><path d="M2,68h110v4H2v-4ZM-15,88H94v4H-15v-4ZM-11,84H98v4H-11v-4ZM-31,104H78v4H-31v-4ZM-27,100H82v4H-27v-4ZM-35,108H74v4H-35v-4ZM-43,116H66v4H-43v-4ZM-47,120H62v4H-47v-4ZM-51,124H58v4H-51v-4Z" fill="#fff"/></g></svg>
