<svg xmlns="http://www.w3.org/2000/svg" width="128" height="128" viewBox="0 0 128 128" fill="none"><g clip-path="url(#a)"><path fill="#f0f0f0" d="M0 0h128v128H0z"/><path fill="#f0f0f0" fill-rule="evenodd" d="M128 0H0v128h128zM60.573 59.423a11.03 11.03 0 0 1-6.015 4.986c-1.137.388-1.953 1.544-1.448 2.633l.185.382q.138.27.288.534a14 14 0 0 0 2.155-.334c3.004-.71 5.6-2.378 7.28-4.68q.571-.785.982-1.634-.315-.649-.53-1.323a10.1 10.1 0 0 1-2.897-.564"/><path fill="#dccfb9" d="M64 8a52 52 0 0 1 42.472 21.999C103.864 28.712 101.003 28 98 28c-11.067 0-20.225 9.658-21.77 22.231C72.65 48.814 68.468 48 64 48s-8.65.814-12.231 2.231C50.224 37.658 41.067 28 30 28c-3.003 0-5.865.712-8.473 1.999A52 52 0 0 1 64 8"/><path fill="#8c8275" d="M64 40a4 4 0 1 1-8 0 4 4 0 0 1 8 0M80 28a4 4 0 1 1-8 0 4 4 0 0 1 8 0M48 26a4 4 0 1 1-8 0 4 4 0 0 1 8 0M64 18a4 4 0 1 1-8 0 4 4 0 0 1 8 0M92 20a4 4 0 1 1-8 0 4 4 0 0 1 8 0"/><path fill="#000" d="M112 60c0-6.764-1.398-13.19-3.915-19.018l-1.735-4.015 4.155-1.37a8 8 0 1 0-8.968-12.31l-2.583 3.533-3.287-2.888C87.212 16.502 76.137 12 64 12s-23.214 4.502-31.668 11.932l-3.287 2.888-2.583-3.533a8 8 0 1 0-8.968 12.31l4.155 1.37-1.735 4.015A47.8 47.8 0 0 0 16 60c0 26.51 21.49 48 48 48v4c-28.719 0-52-23.281-52-52 0-7.32 1.513-14.286 4.242-20.603C11.456 37.819 8 33.315 8 28c0-6.627 5.373-12 12-12a11.98 11.98 0 0 1 9.691 4.927C38.847 12.88 50.853 8 64 8s25.152 4.881 34.308 12.927A11.98 11.98 0 0 1 108 16c6.627 0 12 5.373 12 12 0 5.315-3.456 9.82-8.243 11.397A51.8 51.8 0 0 1 116 60c0 28.719-23.281 52-52 52v-4c26.51 0 48-21.49 48-48"/><path fill="#000" d="M112 60c0-26.51-21.49-48-48-48S16 33.49 16 60s21.49 48 48 48v4c-28.719 0-52-23.281-52-52S35.281 8 64 8s52 23.281 52 52-23.281 52-52 52v-4c26.51 0 48-21.49 48-48"/><path fill="#000" d="M84 64c0-2.665-1.62-5.567-5.248-7.985C75.152 53.615 69.948 52 64 52s-11.152 1.615-14.752 4.015C45.62 58.433 44 61.335 44 64s1.62 5.567 5.248 7.985C52.848 74.385 58.052 76 64 76v4c-13.255 0-24-7.163-24-16s10.745-16 24-16 24 7.163 24 16-10.745 16-24 16v-4c5.948 0 11.152-1.615 14.752-4.015C82.38 69.567 84 66.665 84 64"/><path fill="#f6c8dc" fill-rule="evenodd" d="M64.401 50.007a12 12 0 0 0-.802 0c-1.2.04-1.866 1.29-1.702 2.48q.104.743.104 1.514c0 1.972-.52 3.822-1.428 5.422.888.316 1.866.514 2.897.564q.215.675.53 1.323a10.6 10.6 0 0 1-.982 1.634c-1.68 2.302-4.276 3.97-7.28 4.68a14 14 0 0 1-2.155.334A11.99 11.99 0 0 0 64 74c4.827 0 8.986-2.85 10.89-6.959.506-1.09-.31-2.245-1.447-2.633C69.113 62.93 66 58.83 66 54q0-.77.103-1.513c.165-1.19-.501-2.44-1.702-2.48M53.11 67.043l.185.38a12 12 0 0 1-.185-.38"/><path fill="#000" fill-rule="evenodd" d="M66.104 52.488c.164-1.19-.502-2.44-1.703-2.481L64 50q-.201 0-.4.007c-1.202.04-1.867 1.29-1.703 2.48l.045.373q.06.563.059 1.141c0 1.972-.52 3.822-1.428 5.422.888.316 1.866.514 2.897.564q.215.675.53 1.323a10.6 10.6 0 0 1-.982 1.634c-1.68 2.302-4.276 3.97-7.28 4.68a14 14 0 0 1-2.155.334 11.99 11.99 0 0 0 9.967 6.033L64 74c4.676 0 8.725-2.675 10.705-6.577l.186-.382c.505-1.09-.312-2.245-1.448-2.633C69.113 62.93 66 58.83 66 54q0-.578.058-1.14zm3.91 14.784A7.98 7.98 0 0 1 64 70a7.98 7.98 0 0 1-6.015-2.727A15.07 15.07 0 0 0 64 61.483a15.07 15.07 0 0 0 6.014 5.79"/><path fill="#000" d="M67.213 55.452c-.434 1.555-.209 3.213.705 4.695.928 1.504 2.543 2.771 4.638 3.415 2.097.644 4.404.574 6.434-.186 2.027-.759 3.523-2.102 4.323-3.634l3.544 1.852c-1.298 2.486-3.603 4.458-6.465 5.529a14.1 14.1 0 0 1-9.01.263c-2.937-.902-5.385-2.735-6.868-5.14q-.283-.459-.514-.936-.315-.649-.53-1.323a9.73 9.73 0 0 1-.11-5.61z"/><path fill="#000" fill-rule="evenodd" d="M59.787 60.586c1.054-1.445 1.41-3.097 1.11-4.662l3.93-.752A9.8 9.8 0 0 1 64 61.31q-.315-.65-.53-1.324a10.1 10.1 0 0 1-2.897-.564 11.03 11.03 0 0 1-6.015 4.986c-1.137.388-1.953 1.544-1.448 2.633l.185.382q.138.27.288.534a13.97 13.97 0 0 1-6.809-1.18c-2.764-1.253-4.898-3.369-5.985-5.932l3.683-1.562c.659 1.554 2.016 2.973 3.955 3.852 1.944.881 4.234 1.105 6.392.595 2.157-.509 3.898-1.68 4.968-3.145"/><path fill="#fff" d="M72 54c0 3.314-3.582 6-8 6q-.267 0-.53-.013a10.1 10.1 0 0 1-2.897-.564C57.87 58.461 56 56.394 56 54c0-3.314 3.582-6 8-6s8 2.686 8 6"/><path fill="#000" d="M68 54c0-.115-.053-.526-.743-1.043C66.566 52.439 65.427 52 64 52s-2.566.439-3.257.957c-.69.517-.743.928-.743 1.043s.053.526.743 1.043c.691.518 1.83.957 3.257.957v4q-.267 0-.53-.013a10.1 10.1 0 0 1-2.897-.564C57.87 58.461 56 56.394 56 54c0-3.314 3.582-6 8-6s8 2.686 8 6-3.582 6-8 6v-4c1.427 0 2.566-.439 3.257-.957.69-.517.743-.928.743-1.043"/><path fill="#2483c6" d="m12 128 8-28h88l8 28v6.5H12z"/><path fill="#000" d="M109.509 98 118 127.72v8.78H10v-8.78L18.491 98zM14 128.279v4.221h100v-4.221L106.491 102H21.509z"/><path fill="#e7161e" d="M16 97.024v-4.992c0-2.01 1.94-3.45 3.87-2.887 35.943 10.473 52.317 10.473 88.26 0 1.929-.562 3.87.877 3.87 2.887v4.992a4 4 0 0 1-2.865 3.827c-36.983 10.865-53.288 10.865-90.27 0A4 4 0 0 1 16 97.024"/><path fill="#000" d="M110 92.032c0-.66-.646-1.16-1.311-.967C90.652 96.321 77.359 99 64 99s-26.652-2.679-44.69-7.935a1.02 1.02 0 0 0-1.31.967v4.991c0 .879.586 1.66 1.43 1.909C37.858 104.346 50.964 107 64 107s26.142-2.654 44.57-8.068a2 2 0 0 0 1.43-1.909zm4 4.991a6 6 0 0 1-4.302 5.747C91.145 108.221 77.607 111 64 111s-27.145-2.779-45.698-8.23A6 6 0 0 1 14 97.023v-4.99c0-3.36 3.235-5.74 6.43-4.808C38.335 92.442 51.2 95 64 95s25.665-2.558 43.57-7.775c3.195-.931 6.43 1.449 6.43 4.807z"/><path fill="#f6c8dc" d="M108 68a8 8 0 1 1-16 0 8 8 0 0 1 16 0"/><path fill="#000" d="M104 50a6 6 0 1 1-12 0 6 6 0 0 1 12 0"/><path fill="#fff" d="M102 50a2 2 0 1 1-4 0 2 2 0 0 1 4 0"/><path fill="#000" d="M36 50a6 6 0 1 1-12 0 6 6 0 0 1 12 0"/><path fill="#fff" d="M34 50a2 2 0 1 1-4 0 2 2 0 0 1 4 0"/><path fill="#f6c8dc" d="M36 68a8 8 0 1 1-16 0 8 8 0 0 1 16 0"/><path fill="#000" d="M54.558 64.41a11.03 11.03 0 0 0 6.015-4.987c.888.316 1.866.514 2.897.564q.215.675.53 1.323a10.6 10.6 0 0 1-.982 1.634c-1.68 2.302-4.276 3.97-7.28 4.68a14 14 0 0 1-2.155.334q-.15-.263-.288-.534l-.185-.382c-.505-1.09.311-2.245 1.448-2.633"/></g><defs><clipPath id="a"><path fill="#fff" d="M0 0h128v128H0z"/></clipPath></defs></svg>