<svg xmlns="http://www.w3.org/2000/svg" width="128" height="128" viewBox="0 0 128 128"><defs><clipPath id="clip0"><path d="M0,0h128v128H0z"/></clipPath></defs><g clip-path="url(#clip0)"><path d="M0,0h128v128H0V0Z" fill="#A0E5EA"/><path d="M35.77,81.15c4.58,-3.52 11.49,-2.68 14.93,2.34l0.47,0.71C54.43,88.93 59.86,92 66,92v8c-9.17,0 -17.23,-4.75 -21.86,-11.92 -0.76,-1.18 -2.46,-1.42 -3.55,-0.54A19.91,19.91 0,0 1,28 92v-8c2.87,0 5.48,-1 7.55,-2.67l0.22,-0.17ZM81.58,83.01c2.66,-4.58 8.24,-6.26 12.88,-4.34l0.45,0.2 0.29,0.13c1.46,0.64 3.08,1 4.8,1v8a19.92,19.92 0,0 1,-8.49 -1.89c-1.08,-0.51 -2.41,-0.11 -3.01,0.92C84,94.78 75.61,100 66,100v-8c6.64,0 12.45,-3.6 15.58,-8.98ZM8,72c0,-7.51 4.14,-14.05 10.26,-17.47l0.6,-0.32a2.27,2.27 0,0 0,1.23 -2.01l-0.01,-0.17C20.03,51.36 20,50.68 20,50c0,-14.36 11.64,-26 26,-26 8.15,0 15.43,3.75 20.2,9.63a2.32,2.32 0,0 0,3.25 0.32A25.9,25.9 0,0 1,86 28c13.36,0 24.36,10.07 25.83,23.03 0.06,0.57 0.36,1.1 0.8,1.47C117.13,56.16 120,61.75 120,68c0,11.05 -8.95,20 -20,20v-8c6.63,0 12,-5.37 12,-12 0,-3.75 -1.71,-7.09 -4.42,-9.31a10.22,10.22 0,0 1,-3.69 -6.76C102.86,42.97 95.24,36 86,36a17.9,17.9 0,0 0,-11.46 4.12c-4.4,3.64 -10.96,2.98 -14.56,-1.45C56.67,34.59 51.64,32 46,32c-9.94,0 -18,8.06 -18,18 0,0.47 0.02,0.94 0.05,1.41 0.33,4.2 -1.95,8.06 -5.54,9.91A12,12 0,0 0,16 72c0,6.63 5.37,12 12,12v8C16.95,92 8,83.05 8,72Z" fill="#fff"/></g></svg>
