<svg xmlns="http://www.w3.org/2000/svg" width="128" height="128" viewBox="0 0 128 128"><defs><clipPath id="clip0"><path d="M0,0h128v128H0z"/></clipPath></defs><g clip-path="url(#clip0)"><path d="M0,0h128v128H0z" fill="#FFCC80"/><path d="M0,0h128v128H0V0Z" fill="#F17BA8"/><path d="M52,84v-8c0,-8.84 -7.16,-16 -16,-16h-2c-5.52,0 -10,-4.48 -10,-10v-4c0,-5.52 4.48,-10 10,-10h16a2,2 0,0 0,2 -2v-4a2,2 0,0 0,-2 -2L32,28c-8.84,0 -16,7.16 -16,16v8C16,60.84 23.16,68 32,68h2c5.52,0 10,4.48 10,10v4c0,5.52 -4.48,10 -10,10L18,92a2,2 0,0 0,-2 2v4a2,2 0,0 0,2 2h18c8.84,0 16,-7.16 16,-16ZM60,34c0,5.52 -4.48,10 -10,10L34,44a2,2 0,0 0,-2 2v4a2,2 0,0 0,2 2h2c13.26,0 24,10.74 24,24v8c0,13.26 -10.74,24 -24,24L18,108c-5.52,0 -10,-4.48 -10,-10v-4c0,-5.52 4.48,-10 10,-10h16a2,2 0,0 0,2 -2v-4a2,2 0,0 0,-2 -2h-2C18.75,76 8,65.26 8,52L8,44C8,30.75 18.75,20 32,20h18c5.52,0 10,4.48 10,10v4ZM68,30c0,-5.52 4.48,-10 10,-10h18c13.26,0 24,10.74 24,24v8c0,12.72 -9.89,23.12 -22.4,23.94l19.57,19.57C121.78,100.12 118.52,108 112,108L99.66,108A8,8 0,0 1,94 105.66L74.48,86.14A22.12,22.12 0,0 1,68 70.5C68,60.28 76.28,52 86.5,52L94,52a2,2 0,0 0,2 -2v-4a2,2 0,0 0,-2 -2L78,44c-5.52,0 -10,-4.48 -10,-10v-4ZM76,34a2,2 0,0 0,2 2h16c5.52,0 10,4.48 10,10v4c0,5.52 -4.48,10 -10,10h-7.51C80.7,60 76,64.7 76,70.5a14.12,14.12 0,0 0,4.14 9.98L99.66,100h10.69L86.03,75.68C83.19,72.85 85.2,68 89.21,68L96,68c8.84,0 16,-7.16 16,-16v-8c0,-8.84 -7.16,-16 -16,-16L78,28a2,2 0,0 0,-2 2v4Z" fill="#fff"/></g></svg>
