<svg xmlns="http://www.w3.org/2000/svg" width="128" height="128" viewBox="0 0 128 128"><defs><clipPath id="clip0"><path d="M0,0h128v128H0z"/></clipPath></defs><g clip-path="url(#clip0)"><path d="M0,0h128v128H0z" fill="#fff"/><path d="M0,0h128v128H0V0Z" fill="#fff"/><path d="M64,51.35a64,64 0,0 1,-24.76 50.56c-1.53,1.19 -3.69,0.98 -5.06,-0.38L10.83,78.18a4,4 0,0 1,0 -5.66L57.17,26.18C59.69,23.66 64,25.44 64,29.01v22.34Z" fill="#E8480A"/><path d="M117.17,72.52a4,4 0,0 1,0 5.66l-23.35,23.35c-1.37,1.37 -3.53,1.57 -5.06,0.38a64,64 0,0 1,-24.76 -50.56V29.01c0,-3.56 4.31,-5.35 6.83,-2.83l46.34,46.34Z" fill="#F7B400"/></g></svg>
