<svg xmlns="http://www.w3.org/2000/svg" width="128" height="128" viewBox="0 0 128 128"><path d="M0,0h128v128H0z" fill="#F0F0F0"/><path d="M30,8c8.4,0 15.7,4.71 19.41,11.63 1.12,2.08 3.58,3.29 5.83,2.59A49.96,49.96 0,0 1,70 20c27.61,0 50,22.39 50,50s-22.39,50 -50,50 -50,-22.39 -50,-50c0,-5.14 0.78,-10.1 2.22,-14.76 0.7,-2.26 -0.5,-4.72 -2.59,-5.83C12.71,45.7 8,38.4 8,30 8,17.85 17.85,8 30,8Z" fill="#EF8614"/><path d="M40,60a4,4 0,0 1,4 -4h16a4,4 0,0 1,4 4v4a4,4 0,0 1,-4 4H44a4,4 0,0 1,-4 -4v-4ZM68,60a4,4 0,0 1,4 -4h24a4,4 0,0 1,4 4v4a4,4 0,0 1,-4 4H72a4,4 0,0 1,-4 -4v-4ZM40,76a4,4 0,0 1,4 -4h4a4,4 0,0 1,4 4v4a4,4 0,0 1,-4 4h-4a4,4 0,0 1,-4 -4v-4ZM56,76a4,4 0,0 1,4 -4h36a4,4 0,0 1,4 4v4a4,4 0,0 1,-4 4H60a4,4 0,0 1,-4 -4v-4Z" fill="#fff"/></svg>
