<svg xmlns="http://www.w3.org/2000/svg" width="128" height="128" viewBox="0 0 128 128"><defs><clipPath id="clip0"><path d="M0,0h128v128H0z"/></clipPath></defs><g clip-path="url(#clip0)"><path d="M0,0h128v128H0z" fill="#249FB1"/><path d="M92,40V24a4,4 0,0 1,8 0v16a4,4 0,0 1,-8 0ZM72,48V32a4,4 0,0 1,8 0v16a4,4 0,0 1,-8 0ZM24,74a8,8 0,1 1,-16 0,8 8,0 0,1 16,0Z" fill="#fff"/><path d="M76,48v12h23c0.55,0 1,0.45 0.98,1C99.65,68.33 95.66,72 88,72H76v4l16,52s-68,12 -56,0 20,-20 20,-36L16,76v-4l60,-24Z" fill="#fff"/><path d="M112,25.91L112,16a4,4 0,0 1,8 0v9.91a13,13 0,0 1,-8.17 12.07L80,50.71L80,56h19l0.25,0.01c2.62,0.13 4.85,2.33 4.72,5.17 -0.19,4.34 -1.51,8.24 -4.53,11.02C96.45,74.94 92.42,76 88,76h-7.81l16.97,55.15 -4.46,0.79L92,128c0.69,3.94 0.69,3.94 0.69,3.94h-0a0.03,0.03 0,0 1,-0.01 0l-0.04,0.01a23.57,23.57 0,0 0,-0.15 0.03l-0.57,0.1a536.89,536.89 0,0 1,-9.75 1.57c-6.22,0.94 -14.43,2.08 -22.28,2.84 -7.74,0.75 -15.51,1.17 -20.67,0.55 -1.32,-0.16 -2.61,-0.4 -3.76,-0.78 -1.07,-0.36 -2.46,-0.98 -3.51,-2.19 -1.26,-1.45 -1.65,-3.34 -1.14,-5.17 0.43,-1.53 1.42,-2.78 2.37,-3.72 11.32,-11.32 17.93,-18.1 18.74,-30.5L12,78.71v-9.42l96.86,-38.74A5,5 0,0 0,112 25.91ZM59.65,97.77c-1.39,11.02 -6.82,18.5 -14.11,26.23h41.05L80,102.6v3.31l-20.35,-8.14ZM21.77,74 L72,94.09L72,53.91L21.77,74ZM80,68h8c3.24,0 5.03,-0.78 6.03,-1.7 0.55,-0.5 1.05,-1.23 1.42,-2.3L80,64v4Z" fill="#fff"/></g></svg>
