<svg xmlns="http://www.w3.org/2000/svg" width="128" height="128" viewBox="0 0 128 128"><defs><clipPath id="clip0"><path d="M0,0h128v128H0z"/></clipPath></defs><g clip-path="url(#clip0)"><path d="M0,0h128v128H0z" fill="#F0F0F0"/><path d="M0,0h128v128H0V0Z" fill="#F0F0F0"/><path d="M51.32,69.18c-6.86,25.61 -21.07,44.05 -31.74,41.19 -10.67,-2.86 -13.76,-25.93 -6.89,-51.54 6.86,-25.61 21.07,-44.05 31.74,-41.19 10.67,2.86 13.76,25.93 6.89,51.54Z" fill="#A4F8FB"/><path d="M83.32,69.18c-6.86,25.61 -21.07,44.05 -31.74,41.19 -10.67,-2.86 -13.76,-25.93 -6.89,-51.54 6.86,-25.61 21.07,-44.05 31.74,-41.19 10.67,2.86 13.76,25.93 6.89,51.54Z" fill="#73C6E7"/><path d="M115.32,69.18c-6.86,25.61 -21.07,44.05 -31.74,41.19 -10.67,-2.86 -13.76,-25.93 -6.89,-51.54 6.86,-25.61 21.07,-44.05 31.74,-41.19 10.67,2.86 13.76,25.93 6.89,51.54Z" fill="#3431CE"/><path d="M100,64c0,19.88 -16.12,36 -36,36S28,83.88 28,64s16.12,-36 36,-36 36,16.12 36,36Z" fill="#AC2215"/><path d="M56,84h-5l-0.1,-0A1,1 0,0 1,50 83h6v1ZM62,63v8h-4v-8h4ZM67.5,57.5A5.5,5.5 0,0 0,62 52h-4v19a1,1 0,0 0,-1 1v11a1,1 0,0 1,-1 1v-1h-6L50,45a1,1 0,0 1,1 -1h11c7.46,0 13.5,6.04 13.5,13.5S69.46,71 62,71v-8a5.5,5.5 0,0 0,5.5 -5.5Z" fill="#fff"/><path d="m77.51,79.06 l-4,2.94L73.51,84a2,2 0,0 1,-1.61 -0.81L60.37,67.5h9l8.15,11.56ZM77.51,79.06 L79.89,82.42A1,1 0,0 1,79.07 84v-1l-1.42,1h-4.14v-2l4,-2.94ZM79.07,84h-1.42l1.42,-1v1Z" fill="#fff"/></g></svg>
