<svg xmlns="http://www.w3.org/2000/svg" width="128" height="128" viewBox="0 0 128 128" fill="none"><g clip-path="url(#a)"><path fill="#f0f0f0" d="M0 0h128v128H0z"/><path fill="#df0011" d="M52 102V26a6 6 0 0 1 12 0v76a6 6 0 1 1-12 0M8 102V26a6 6 0 0 1 12 0v76a6 6 0 1 1-12 0"/><path fill="#df0011" d="m35.048 67.389-26-38a6 6 0 1 1 9.904-6.777l26 38a6 6 0 0 1-9.904 6.776"/><path fill="#0d599e" d="M95.994 32a6 6 0 0 1 6 6v12.005H90v12h11.994V74a6 6 0 1 1-12 0V38a6 6 0 0 1 6-6"/><path fill="#0d599e" d="M71.994 56a6 6 0 0 1 6-6H90v11.994h12V50h11.995a6 6 0 1 1 0 12h-36a6 6 0 0 1-6-6"/></g><defs><clipPath id="a"><path fill="#fff" d="M0 0h128v128H0z"/></clipPath></defs></svg>