<svg xmlns="http://www.w3.org/2000/svg" width="128" height="128" viewBox="0 0 128 128" fill="none"><g clip-path="url(#a)"><path fill="#f0f0f0" d="M0 0h128v128H0z"/><path fill="#393c3b" d="M80.527 46.018a4 4 0 0 1 6.946 3.968L72.34 76.466c-1.92 3.36-6.762 3.36-8.682 0l-9.923-17.364c-.767-1.343-2.705-1.343-3.472 0L40.186 76.737a2.1 2.1 0 0 0-.265.853C39.123 85.681 32.3 92.002 24 92.002c-8.837 0-16-7.163-16-16s7.164-16 16-16c4.162 0 7.953 1.59 10.799 4.194 1.063.974 2.847.863 3.562-.389l9.298-16.27.188-.306c1.965-2.952 6.34-2.952 8.306 0l.188.306 9.922 17.364c.767 1.343 2.705 1.343 3.473 0zm-.864-30.489c1.855-3.245 6.443-3.357 8.483-.323l.189.304 29.397 50.92q.043.066.093.15.135.225.317.58c.239.472.526 1.117.802 1.934.537 1.587 1.023 3.8 1.053 6.625q.003.14.003.283c0 8.837-7.163 16-16 16s-16-7.163-16-16 7.163-16 16-16c.344 0 .57-.373.398-.67l-18.64-32.284c-.771-1.337-2.702-1.333-3.468.007l-9.95 17.412c-1.919 3.359-6.761 3.359-8.68 0l-9.923-17.365c-.768-1.343-2.706-1.343-3.474 0l-10.79 18.884a4 4 0 1 1-6.946-3.968L47.66 15.536l.188-.306c2.03-3.05 6.634-2.948 8.494.306L66.263 32.9c.767 1.343 2.705 1.343 3.473 0zM24 68.002a8 8 0 1 0 0 16 8 8 0 0 0 0-16m80 0a8 8 0 1 0 0 16 8 8 0 0 0 0-16"/><path fill="#eebe4f" d="M26.735 107.205a4.001 4.001 0 0 1 2.53 7.59c-3.256 1.085-6.2 1.705-9.265 1.705s-6.009-.62-9.265-1.705a4 4 0 0 1 2.53-7.59c2.744.915 4.8 1.295 6.735 1.295s3.991-.38 6.735-1.295"/><path fill="#392258" d="M85.735 107.205a4.001 4.001 0 0 1 2.53 7.59c-3.256 1.085-6.2 1.705-9.265 1.705s-6.009-.62-9.265-1.705a4 4 0 0 1 2.53-7.59c2.744.915 4.8 1.295 6.735 1.295s3.991-.38 6.735-1.295"/><path fill="#ed362c" d="M42.265 109.295a4.001 4.001 0 0 1-2.53-7.59C42.991 100.62 45.935 100 49 100s6.009.62 9.265 1.705a4 4 0 0 1-2.53 7.59C52.991 108.38 50.935 108 49 108s-3.991.38-6.735 1.295"/><path fill="#358fc3" d="M114.735 109.295a4 4 0 0 0 5.06-2.53 4 4 0 0 0-2.53-5.06c-3.256-1.085-6.2-1.705-9.265-1.705s-6.009.62-9.265 1.705a4 4 0 0 0 2.53 7.59c2.744-.915 4.8-1.295 6.735-1.295s3.991.38 6.735 1.295"/></g><defs><clipPath id="a"><path fill="#fff" d="M0 0h128v128H0z"/></clipPath></defs></svg>