<svg xmlns="http://www.w3.org/2000/svg" width="128" height="128" viewBox="0 0 128 128"><defs><clipPath id="clip0"><path d="M0,0h128v128H0z"/></clipPath></defs><g clip-path="url(#clip0)"><path d="M0,0h128v128H0z" fill="#ecd27e"/><path d="M0,0h128v128H0z" fill="#f0f0f0"/><path d="M0,96h128v32H0z" fill="#2f4aa3"/><path d="M0,64h128v32H0z" fill="#c71d93"/><path d="M0,32h128v32H0z" fill="#ed2631"/><path d="M0,0h128v32H0z" fill="#f46d22"/><path d="M64.06,48c13.48,0 26.47,7.9 36.6,22.13 1.17,1.65 -0.04,3.87 -2.07,3.87 -0.4,0 -0.79,-0.09 -1.15,-0.27 -9.72,-4.75 -21.15,-7.48 -33.39,-7.48 -12.23,0 -23.67,2.74 -33.39,7.48a2.6,2.6 0,0 1,-1.15 0.27c-2.02,0 -3.24,-2.22 -2.07,-3.87C37.6,55.9 50.58,48 64.06,48" fill="#f5bc20"/></g></svg>
