<svg xmlns="http://www.w3.org/2000/svg" width="128" height="128" viewBox="0 0 128 128"><path d="M0,0h128v128H0z" fill="#0E540D"/><path d="M11.3,43.25A12,12 0,0 1,23.27 32H108c6.63,0 12,5.37 12,12v40c0,6.63 -5.37,12 -12,12H20.77c-6.92,0 -12.41,-5.84 -11.98,-12.75l2.5,-40Z" fill="#FBFFE5"/><path d="M52,94c0,7.73 -6.27,14 -14,14 -7.73,0 -14,-6.27 -14,-14s6.27,-14 14,-14c7.73,0 14,6.27 14,14ZM104,94c0,7.73 -6.27,14 -14,14 -7.73,0 -14,-6.27 -14,-14s6.27,-14 14,-14c7.73,0 14,6.27 14,14Z" fill="#FBFFE5"/></svg>
