<svg xmlns="http://www.w3.org/2000/svg" width="128" height="128" viewBox="0 0 128 128" fill="none"><path fill="#73bce6" d="M0 0h128v128H0z"/><path fill="#fff" d="M60 66V44.473l-15.789-7.895a4 4 0 0 1 3.578-7.156l12.212 6.105v-7.054l-9.79-4.895a4 4 0 0 1 3.578-7.156l6.212 3.105V14a4 4 0 1 1 8 0v5.527l6.21-3.105a4 4 0 0 1 3.579 7.156L68 28.473v7.054l12.211-6.105a4 4 0 0 1 3.579 7.156L68 44.473V66a4 4 0 0 1-8 0"/><path fill="#fff" d="M60.753 68.336 73.33 85.808l-8.201 15.631a4 4 0 0 0 7.085 3.718l6.343-12.09 4.121 5.726-5.085 9.691a4 4 0 0 0 7.085 3.717l3.227-6.149 3.229 4.486a4 4 0 0 0 6.493-4.674l-3.23-4.486 6.855-1.108a4.001 4.001 0 0 0-1.277-7.898l-10.804 1.747-4.122-5.726 13.477-2.179a4 4 0 0 0-1.277-7.898l-17.426 2.817-12.577-17.47a4 4 0 0 0-6.493 4.673"/><path fill="#fff" d="m60.755 63.663-12.577 17.47-17.426-2.817a4 4 0 0 0-1.278 7.898l13.478 2.18-4.122 5.725-10.804-1.747a4 4 0 0 0-1.277 7.898l6.855 1.109-3.23 4.486a4 4 0 0 0 6.493 4.674l3.23-4.486 3.225 6.149a4.001 4.001 0 0 0 7.085-3.718l-5.084-9.691 4.121-5.726 6.343 12.09a4.001 4.001 0 0 0 7.085-3.718L54.67 85.808l12.578-17.471a4 4 0 1 0-6.493-4.674"/><path fill="#fff" d="m62.797 62.185 20.53-6.473L86.11 38.28a4 4 0 0 1 7.901 1.26l-2.15 13.482 6.727-2.121 1.725-10.808a4 4 0 1 1 7.901 1.26l-1.094 6.858 5.271-1.663a4 4 0 0 1 2.406 7.63l-5.272 1.662 4.83 4.99a4 4 0 0 1-5.75 5.564l-7.611-7.864-6.728 2.122 9.494 9.81a4 4 0 1 1-5.749 5.564L85.733 63.342l-20.53 6.473a4 4 0 1 1-2.406-7.63"/><path fill="#fff" d="m62.798 69.815-20.531-6.473L29.99 76.026a4 4 0 0 1-5.75-5.564l9.496-9.81-6.729-2.122-7.611 7.865a4 4 0 0 1-5.75-5.565l4.83-4.99-5.271-1.662a4 4 0 1 1 2.405-7.63l5.272 1.663-1.094-6.858a4 4 0 0 1 7.9-1.26L29.414 50.9l6.728 2.121-2.15-13.482a4 4 0 0 1 7.9-1.26l2.781 17.432 20.531 6.473a4 4 0 1 1-2.405 7.63"/></svg>