<svg xmlns="http://www.w3.org/2000/svg" width="128" height="128" viewBox="0 0 128 128"><defs><clipPath id="clip0"><path d="M0,0h128v128H0z"/></clipPath></defs><g clip-path="url(#clip0)"><path d="M0,0h128v128H0z" fill="#fff"/><path d="M0,0h128v128H0V0Z" fill="#1F70C9"/><path d="M20.88,104h-9.03a3,3 0,0 1,-2.91 -3.73l14.9,-59.59A22.02,22.02 0,0 1,45.19 24c9.55,0 16.56,8.98 14.24,18.24L48.53,85.86A1.72,1.72 0,0 0,50.21 88a2.3,2.3 0,0 0,2.23 -1.74L63.83,40.68A22.02,22.02 0,0 1,85.19 24c9.55,0 16.56,8.98 14.24,18.24l-7.87,31.49A3,3 0,0 1,88.66 76h-9.53A3.22,3.22 0,0 1,76 72l7.47,-29.86A1.72,1.72 0,0 0,81.79 40a2.3,2.3 0,0 0,-2.23 1.74L67.88,88.48A20.49,20.49 0,0 1,48 104c-10.16,0 -17.61,-9.55 -15.15,-19.4l10.61,-42.46A1.72,1.72 0,0 0,41.79 40a2.3,2.3 0,0 0,-2.23 1.74L24.76,100.97a4,4 0,0 1,-3.88 3.03Z" fill="#fff"/><path d="m72.85,84.6 l0.58,-2.33A3,3 0,0 1,76.34 80h10.36a2.58,2.58 0,0 1,2.5 3.2l-0.67,2.66A1.72,1.72 0,0 0,90.21 88a2.3,2.3 0,0 0,2.23 -1.74l14.81,-59.23a4,4 0,0 1,3.88 -3.03h9.03a3,3 0,0 1,2.91 3.73l-15.19,60.75A20.49,20.49 0,0 1,88 104c-10.16,0 -17.61,-9.55 -15.15,-19.4Z" fill="#fff"/></g></svg>
